<?xml version="1.0" encoding="utf-8"?>
<!-- Generator: Adobe Illustrator 18.0.0, SVG Export Plug-In . SVG Version: 6.00 Build 0)  -->
<!DOCTYPE svg PUBLIC "-//W3C//DTD SVG 1.1//EN" "http://www.w3.org/Graphics/SVG/1.1/DTD/svg11.dtd">
<svg version="1.1" id="Layer_1" xmlns="http://www.w3.org/2000/svg" xmlns:xlink="http://www.w3.org/1999/xlink" x="0px" y="0px"
	 width="289px" height="78px" viewBox="0 0 289 78" enable-background="new 0 0 289 78" xml:space="preserve">
<g>
	<path fill="#4A89DC" d="M263.1,0H0v78h263.1L289,39L263.1,0z M262,76H91V2h171l25,37L262,76z"/>
	<g>
		<g>
			<path fill="#FFFFFF" d="M136.9,37.9c0-1,0.2-2,0.5-3.1c0.4-1,0.9-1.9,1.6-2.7c0.7-0.8,1.5-1.5,2.5-2s2.2-0.8,3.4-0.8
				c1.5,0,2.8,0.3,3.9,1c1.1,0.7,1.9,1.6,2.4,2.7l-1.3,0.8c-0.3-0.6-0.6-1-1-1.4c-0.4-0.4-0.8-0.7-1.2-0.9c-0.4-0.2-0.9-0.4-1.4-0.5
				c-0.5-0.1-1-0.2-1.4-0.2c-1,0-1.9,0.2-2.7,0.6s-1.4,1-2,1.6c-0.5,0.7-0.9,1.4-1.2,2.3c-0.3,0.8-0.4,1.7-0.4,2.6
				c0,0.9,0.2,1.8,0.5,2.7s0.8,1.6,1.3,2.3c0.6,0.7,1.2,1.2,2,1.6s1.6,0.6,2.5,0.6c0.5,0,1-0.1,1.5-0.2c0.5-0.1,1-0.3,1.5-0.6
				c0.5-0.3,0.9-0.6,1.3-1c0.4-0.4,0.7-0.9,1-1.4l1.4,0.7c-0.3,0.6-0.7,1.2-1.2,1.7c-0.5,0.5-1,0.9-1.7,1.2
				c-0.6,0.3-1.3,0.6-1.9,0.8c-0.7,0.2-1.3,0.3-2,0.3c-1.2,0-2.2-0.3-3.2-0.8c-1-0.5-1.8-1.2-2.5-2s-1.3-1.8-1.6-2.8
				C137.1,40.1,136.9,39,136.9,37.9z"/>
			<path fill="#FFFFFF" d="M159.6,46.8c-0.9,0-1.7-0.2-2.5-0.5s-1.4-0.8-2-1.4c-0.6-0.6-1-1.3-1.3-2.1s-0.5-1.6-0.5-2.5
				c0-0.9,0.2-1.7,0.5-2.5c0.3-0.8,0.7-1.5,1.3-2.1s1.2-1.1,2-1.4c0.8-0.4,1.6-0.5,2.5-0.5c0.9,0,1.7,0.2,2.5,0.5
				c0.8,0.4,1.4,0.8,2,1.4c0.6,0.6,1,1.3,1.3,2.1c0.3,0.8,0.5,1.6,0.5,2.5c0,0.9-0.2,1.7-0.5,2.5c-0.3,0.8-0.7,1.5-1.3,2.1
				c-0.6,0.6-1.2,1.1-2,1.4S160.5,46.8,159.6,46.8z M155.1,40.4c0,0.7,0.1,1.4,0.3,2c0.2,0.6,0.6,1.1,1,1.6s0.9,0.8,1.4,1.1
				c0.6,0.3,1.1,0.4,1.8,0.4s1.2-0.1,1.8-0.4c0.6-0.3,1-0.6,1.5-1.1c0.4-0.5,0.7-1,1-1.6c0.2-0.6,0.4-1.3,0.4-2c0-0.7-0.1-1.3-0.4-2
				c-0.2-0.6-0.6-1.2-1-1.6c-0.4-0.5-0.9-0.8-1.4-1.1c-0.5-0.3-1.1-0.4-1.8-0.4s-1.2,0.1-1.8,0.4c-0.6,0.3-1,0.6-1.4,1.1
				s-0.7,1-1,1.6C155.2,39,155.1,39.7,155.1,40.4z"/>
			<path fill="#FFFFFF" d="M179.1,46.6h-1.6v-7c0-1.5-0.2-2.6-0.6-3.2c-0.4-0.7-1.1-1-2-1c-0.5,0-1,0.1-1.4,0.3
				c-0.5,0.2-0.9,0.4-1.3,0.7c-0.4,0.3-0.8,0.7-1.1,1.1c-0.3,0.4-0.5,0.9-0.7,1.4v7.7h-1.6V34.1h1.5v2.8c0.3-0.4,0.6-0.9,0.9-1.2
				c0.4-0.4,0.8-0.7,1.3-1c0.5-0.3,1-0.5,1.5-0.6c0.5-0.1,1.1-0.2,1.6-0.2c0.7,0,1.3,0.1,1.8,0.4s0.9,0.6,1.1,1.1s0.5,1,0.6,1.7
				c0.1,0.7,0.2,1.4,0.2,2.2V46.6z"/>
			<path fill="#FFFFFF" d="M188.6,46c-0.1,0-0.2,0.1-0.4,0.2s-0.4,0.2-0.6,0.2s-0.5,0.2-0.8,0.2s-0.6,0.1-1,0.1c-0.4,0-0.7,0-1-0.1
				c-0.3-0.1-0.6-0.2-0.8-0.4s-0.4-0.5-0.6-0.8c-0.1-0.3-0.2-0.7-0.2-1.1v-9h-1.7v-1.3h1.7v-4.2h1.6v4.2h2.9v1.3h-2.9v8.5
				c0,0.5,0.2,0.8,0.5,1c0.3,0.2,0.6,0.3,1,0.3c0.5,0,0.9-0.1,1.2-0.2c0.4-0.2,0.6-0.3,0.7-0.3L188.6,46z"/>
			<path fill="#FFFFFF" d="M193.9,46.8c-0.6,0-1.2-0.1-1.8-0.3c-0.5-0.2-1-0.5-1.4-0.8c-0.4-0.4-0.7-0.8-0.9-1.2s-0.3-1-0.3-1.5
				c0-0.6,0.1-1.1,0.4-1.6c0.3-0.5,0.6-0.9,1.1-1.2c0.5-0.3,1-0.6,1.7-0.8c0.6-0.2,1.4-0.3,2.1-0.3c0.6,0,1.3,0.1,1.9,0.2
				s1.2,0.3,1.8,0.5v-1.1c0-1.1-0.3-2-0.9-2.6c-0.6-0.6-1.5-1-2.6-1c-0.7,0-1.3,0.1-2,0.4s-1.3,0.6-2,1.1l-0.6-1.1
				c0.8-0.5,1.6-1,2.4-1.2c0.8-0.3,1.6-0.4,2.4-0.4c1.5,0,2.7,0.4,3.6,1.3s1.3,2.1,1.3,3.6v5.6c0,0.4,0.2,0.7,0.6,0.7v1.4
				c-0.1,0-0.2,0-0.4,0c-0.1,0-0.2,0-0.3,0c-0.3,0-0.6-0.1-0.9-0.3c-0.3-0.2-0.4-0.5-0.4-0.9l0-1c-0.5,0.7-1.3,1.3-2.1,1.7
				C195.7,46.6,194.8,46.8,193.9,46.8z M194.3,45.6c0.7,0,1.4-0.2,2.1-0.5c0.7-0.3,1.3-0.7,1.7-1.3c0.1-0.1,0.2-0.3,0.3-0.5
				s0.1-0.3,0.1-0.5v-2c-0.5-0.2-1.1-0.4-1.7-0.5c-0.6-0.1-1.2-0.2-1.7-0.2c-1.2,0-2.1,0.2-2.8,0.7c-0.7,0.5-1.1,1.1-1.1,2
				c0,0.3,0.1,0.7,0.2,1c0.1,0.3,0.3,0.6,0.6,0.9c0.3,0.3,0.6,0.5,1,0.6C193.3,45.5,193.8,45.6,194.3,45.6z"/>
			<path fill="#FFFFFF" d="M203,40.3c0-0.9,0.2-1.7,0.5-2.5s0.7-1.5,1.3-2.1s1.2-1,2-1.4c0.8-0.3,1.6-0.5,2.5-0.5
				c1.2,0,2.2,0.3,3.1,0.8s1.5,1.3,2,2.2l-1.6,0.5c-0.4-0.6-0.8-1.1-1.5-1.5s-1.3-0.5-2.1-0.5c-0.6,0-1.2,0.1-1.8,0.4
				c-0.6,0.3-1,0.6-1.4,1c-0.4,0.4-0.7,1-1,1.6c-0.2,0.6-0.3,1.3-0.3,2c0,0.7,0.1,1.4,0.4,2c0.2,0.6,0.6,1.2,1,1.6
				c0.4,0.5,0.9,0.8,1.5,1.1c0.6,0.3,1.1,0.4,1.8,0.4c0.4,0,0.8-0.1,1.2-0.2c0.4-0.1,0.8-0.3,1.1-0.5s0.6-0.4,0.9-0.7
				c0.2-0.3,0.4-0.5,0.5-0.8l1.6,0.5c-0.2,0.4-0.4,0.9-0.8,1.2s-0.7,0.7-1.2,1c-0.5,0.3-1,0.5-1.5,0.6c-0.6,0.2-1.1,0.2-1.7,0.2
				c-0.9,0-1.8-0.2-2.5-0.5c-0.8-0.3-1.4-0.8-2-1.4c-0.6-0.6-1-1.3-1.3-2.1C203.2,42,203,41.2,203,40.3z"/>
			<path fill="#FFFFFF" d="M223.2,46c-0.1,0-0.2,0.1-0.4,0.2s-0.4,0.2-0.6,0.2s-0.5,0.2-0.8,0.2s-0.6,0.1-1,0.1c-0.4,0-0.7,0-1-0.1
				c-0.3-0.1-0.6-0.2-0.8-0.4s-0.4-0.5-0.6-0.8c-0.1-0.3-0.2-0.7-0.2-1.1v-9H216v-1.3h1.7v-4.2h1.6v4.2h2.9v1.3h-2.9v8.5
				c0,0.5,0.2,0.8,0.5,1c0.3,0.2,0.6,0.3,1,0.3c0.5,0,0.9-0.1,1.2-0.2c0.4-0.2,0.6-0.3,0.7-0.3L223.2,46z"/>
		</g>
	</g>
	<g>
		<path fill="none" stroke="#FFFFFF" stroke-width="2" stroke-miterlimit="10" d="M38.3,51.4v-3.3h1.7v-3.3H30v3.3h1.7v3.3
			c-6.6,0-9.9,5-9.9,11.6h26.5C48.2,56.4,44.9,51.4,38.3,51.4z"/>
		<line fill="none" stroke="#FFFFFF" stroke-width="2" stroke-miterlimit="10" x1="68.1" y1="15.8" x2="43.2" y2="40.7"/>
		<path fill="none" stroke="#FFFFFF" stroke-width="2" stroke-miterlimit="10" d="M46.5,37.3c-2.9-2.9,0.2-9.8,6.3-15.9
			c3.1-3.1,6.5-5.4,8.6-6.5v7.4"/>
		<line fill="none" stroke="#FFFFFF" stroke-width="2" stroke-miterlimit="10" x1="54" y1="29.9" x2="64.7" y2="29.9"/>
		<path fill="none" stroke="#FFFFFF" stroke-width="2" stroke-miterlimit="10" d="M50.7,33.2h11.6c-5.8,6.1-13,6.8-15.7,4.1"/>
		<path fill="none" stroke="#FFFFFF" stroke-width="2" stroke-miterlimit="10" d="M68.1,15.8c1.9,1.9,1.6,5.4-0.8,10.8h-9.9"/>
	</g>
</g>
</svg>
