<?xml version="1.0" encoding="utf-8"?>
<!-- Generator: Adobe Illustrator 18.0.0, SVG Export Plug-In . SVG Version: 6.00 Build 0)  -->
<!DOCTYPE svg PUBLIC "-//W3C//DTD SVG 1.1//EN" "http://www.w3.org/Graphics/SVG/1.1/DTD/svg11.dtd">
<svg version="1.1" id="Layer_1" xmlns="http://www.w3.org/2000/svg" xmlns:xlink="http://www.w3.org/1999/xlink" x="0px" y="0px"
	 width="76px" height="76px" viewBox="0 0 76 76" enable-background="new 0 0 76 76" xml:space="preserve">
<rect fill="#4A89DC" width="76" height="76"/>
<g>
	<path fill="none" stroke="#FFFFFF" stroke-width="2" stroke-linejoin="round" stroke-miterlimit="10" d="M30.8,50.4v-3.3h1.7v-3.3
		h-9.9v3.3h1.7v3.3c-6.6,0-9.9,5-9.9,11.6h26.5C40.7,55.4,37.4,50.4,30.8,50.4z"/>
	
		<line fill="none" stroke="#FFFFFF" stroke-width="2" stroke-linejoin="round" stroke-miterlimit="10" x1="60.6" y1="14.8" x2="35.7" y2="39.7"/>
	<path fill="none" stroke="#FFFFFF" stroke-width="2" stroke-linejoin="round" stroke-miterlimit="10" d="M39,36.3
		c-2.9-2.9,0.2-9.8,6.3-15.9c3.1-3.1,6.5-5.4,8.6-6.5v7.4"/>
	
		<line fill="none" stroke="#FFFFFF" stroke-width="2" stroke-linejoin="round" stroke-miterlimit="10" x1="46.5" y1="28.9" x2="57.2" y2="28.9"/>
	<path fill="none" stroke="#FFFFFF" stroke-width="2" stroke-linejoin="round" stroke-miterlimit="10" d="M43.2,32.2h11.6
		c-5.8,6.1-13,6.8-15.7,4.1"/>
	<path fill="none" stroke="#FFFFFF" stroke-width="2" stroke-linejoin="round" stroke-miterlimit="10" d="M60.6,14.8
		c1.9,1.9,1.6,5.4-0.8,10.8h-9.9"/>
</g>
</svg>
