<?xml version="1.0" encoding="utf-8"?>
<!-- Generator: Adobe Illustrator 18.0.0, SVG Export Plug-In . SVG Version: 6.00 Build 0)  -->
<!DOCTYPE svg PUBLIC "-//W3C//DTD SVG 1.1//EN" "http://www.w3.org/Graphics/SVG/1.1/DTD/svg11.dtd">
<svg version="1.1" id="Layer_1" xmlns="http://www.w3.org/2000/svg" xmlns:xlink="http://www.w3.org/1999/xlink" x="0px" y="0px"
	 viewBox="0 0 286.9 31.3" enable-background="new 0 0 286.9 31.3" xml:space="preserve">
<g>
	<path d="M19.2,29.6v1.3H0V1.8h18.9v1.3H1.4v12.3h15.3v1.3H1.4v12.9H19.2z"/>
	<path d="M34.1,10.9c-2,0.1-3.7,0.7-5.1,1.9c-1.4,1.2-2.5,2.7-3,4.7v13.4h-1.4V9.6h1.4V15c0.7-1.5,1.7-2.7,3-3.7
		c1.2-1,2.5-1.5,3.9-1.7c0.3,0,0.5,0,0.7,0s0.4,0,0.6,0V10.9z"/>
	<path d="M38.2,4.4V1h1.4v3.4H38.2z M38.2,30.9V9.6h1.4v21.3H38.2z"/>
	<path d="M44.7,20.2c0-1.5,0.3-3,0.8-4.3c0.5-1.3,1.2-2.5,2.2-3.5c0.9-1,2-1.8,3.3-2.3c1.3-0.6,2.6-0.8,4.1-0.8
		c1.9,0,3.5,0.4,4.9,1.3c1.4,0.9,2.5,2,3.3,3.5l-1.4,0.5c-0.7-1.3-1.6-2.2-2.8-3c-1.2-0.7-2.6-1.1-4.1-1.1c-1.2,0-2.4,0.2-3.5,0.7
		c-1.1,0.5-2,1.2-2.8,2c-0.8,0.9-1.4,1.9-1.9,3.1c-0.5,1.2-0.7,2.4-0.7,3.8c0,1.3,0.2,2.6,0.7,3.8c0.5,1.2,1.1,2.2,1.9,3.1
		c0.8,0.9,1.7,1.6,2.8,2.1c1.1,0.5,2.2,0.8,3.4,0.8c0.8,0,1.6-0.1,2.4-0.3c0.8-0.2,1.5-0.5,2.2-0.9s1.2-0.8,1.7-1.3
		c0.5-0.5,0.8-1,1-1.6l1.4,0.4c-0.2,0.7-0.6,1.4-1.2,2c-0.5,0.6-1.2,1.2-1.9,1.6c-0.8,0.5-1.6,0.8-2.5,1.1c-0.9,0.3-1.8,0.4-2.8,0.4
		c-1.4,0-2.8-0.3-4.1-0.9c-1.3-0.6-2.4-1.4-3.3-2.4c-0.9-1-1.7-2.2-2.2-3.5C45,23.2,44.7,21.7,44.7,20.2z"/>
	<path d="M69.2,30.9V1.8h9.5c2.3,0,4.3,0.4,6,1.1c1.7,0.8,3.1,1.8,4.3,3.1s2,2.8,2.6,4.6c0.6,1.8,0.9,3.6,0.9,5.6c0,2.2-0.3,4.2-1,6
		c-0.6,1.8-1.6,3.3-2.7,4.6c-1.2,1.3-2.6,2.3-4.3,3c-1.7,0.7-3.6,1-5.7,1H69.2z M91,16.3c0-1.9-0.3-3.7-0.8-5.3s-1.3-3-2.4-4.2
		c-1-1.2-2.3-2.1-3.9-2.7c-1.5-0.7-3.3-1-5.3-1h-8.1v26.5h8.1c2,0,3.8-0.3,5.4-1c1.5-0.7,2.8-1.6,3.9-2.8c1-1.2,1.8-2.6,2.3-4.2
		C90.7,20,91,18.2,91,16.3z"/>
	<path d="M106.7,31.3c-1.4,0-2.8-0.3-4-0.9c-1.2-0.6-2.3-1.4-3.3-2.4c-0.9-1-1.7-2.2-2.2-3.5c-0.5-1.3-0.8-2.7-0.8-4.2
		c0-1.5,0.3-2.9,0.8-4.3s1.3-2.5,2.2-3.5c0.9-1,2-1.8,3.3-2.4c1.2-0.6,2.6-0.9,4-0.9c1.4,0,2.8,0.3,4,0.9c1.3,0.6,2.4,1.4,3.3,2.4
		c0.9,1,1.7,2.2,2.2,3.5c0.5,1.3,0.8,2.8,0.8,4.3c0,1.5-0.3,2.9-0.8,4.2c-0.5,1.3-1.3,2.5-2.2,3.5c-0.9,1-2,1.8-3.3,2.4
		C109.4,31,108.1,31.3,106.7,31.3z M97.8,20.4c0,1.3,0.2,2.6,0.7,3.7c0.5,1.2,1.1,2.2,1.9,3.1c0.8,0.9,1.7,1.6,2.8,2.1
		c1.1,0.5,2.2,0.8,3.4,0.8c1.2,0,2.3-0.3,3.4-0.8c1.1-0.5,2-1.2,2.8-2.1c0.8-0.9,1.4-1.9,1.9-3.1c0.5-1.2,0.7-2.4,0.7-3.8
		c0-1.3-0.2-2.6-0.7-3.8c-0.5-1.2-1.1-2.2-1.9-3.1c-0.8-0.9-1.7-1.6-2.8-2.1c-1.1-0.5-2.2-0.8-3.4-0.8c-1.2,0-2.3,0.3-3.4,0.8
		c-1.1,0.5-2,1.2-2.8,2.1s-1.4,1.9-1.9,3.1C98.1,17.8,97.8,19.1,97.8,20.4z"/>
	<path d="M131.6,31.3c-0.8,0-1.6-0.1-2.4-0.4c-0.8-0.2-1.6-0.6-2.3-1c-0.7-0.4-1.4-0.9-2-1.5c-0.6-0.6-1.1-1.2-1.5-1.9v4.3h-1.3V1
		h1.4v13.4c1-1.5,2.3-2.8,3.6-3.7c1.4-1,3-1.4,4.9-1.4c1.5,0,2.9,0.3,4.1,1c1.2,0.7,2.2,1.5,3.1,2.5c0.8,1,1.5,2.2,1.9,3.5
		c0.5,1.3,0.7,2.7,0.7,4c0,1.4-0.3,2.8-0.8,4.2c-0.5,1.3-1.2,2.5-2.2,3.5c-0.9,1-2,1.8-3.3,2.4C134.4,31,133,31.3,131.6,31.3z
		 M131.4,30c1.3,0,2.5-0.3,3.6-0.8s2-1.3,2.8-2.2c0.8-0.9,1.4-1.9,1.9-3.1c0.4-1.2,0.7-2.3,0.7-3.5c0-1.3-0.2-2.5-0.6-3.6
		c-0.4-1.2-1-2.2-1.8-3.1c-0.8-0.9-1.7-1.6-2.7-2.2c-1.1-0.5-2.2-0.8-3.5-0.8c-1,0-1.9,0.2-2.7,0.5c-0.8,0.3-1.6,0.8-2.3,1.3
		c-0.7,0.5-1.3,1.2-1.9,1.9c-0.5,0.7-1,1.5-1.4,2.3V24c0.1,0.8,0.4,1.6,0.9,2.3c0.5,0.7,1.2,1.4,2,1.9c0.8,0.6,1.6,1,2.5,1.3
		S130.6,30,131.4,30z"/>
	<path d="M156.5,31.3c-0.8,0-1.6-0.1-2.4-0.4c-0.8-0.2-1.6-0.6-2.3-1c-0.7-0.4-1.4-0.9-2-1.5c-0.6-0.6-1.1-1.2-1.5-1.9v4.3h-1.3V1
		h1.4v13.4c1-1.5,2.3-2.8,3.6-3.7c1.4-1,3-1.4,4.9-1.4c1.5,0,2.9,0.3,4.1,1c1.2,0.7,2.2,1.5,3.1,2.5c0.8,1,1.5,2.2,1.9,3.5
		c0.5,1.3,0.7,2.7,0.7,4c0,1.4-0.3,2.8-0.8,4.2c-0.5,1.3-1.2,2.5-2.2,3.5c-0.9,1-2,1.8-3.3,2.4C159.2,31,157.9,31.3,156.5,31.3z
		 M156.3,30c1.3,0,2.5-0.3,3.6-0.8c1.1-0.6,2-1.3,2.8-2.2c0.8-0.9,1.4-1.9,1.9-3.1c0.4-1.2,0.7-2.3,0.7-3.5c0-1.3-0.2-2.5-0.6-3.6
		c-0.4-1.2-1-2.2-1.8-3.1c-0.8-0.9-1.7-1.6-2.7-2.2c-1.1-0.5-2.2-0.8-3.5-0.8c-1,0-1.9,0.2-2.7,0.5c-0.8,0.3-1.6,0.8-2.3,1.3
		c-0.7,0.5-1.3,1.2-1.9,1.9c-0.5,0.7-1,1.5-1.4,2.3V24c0.1,0.8,0.4,1.6,0.9,2.3s1.2,1.4,2,1.9c0.8,0.6,1.6,1,2.5,1.3
		S155.5,30,156.3,30z"/>
	<path d="M180.8,31.3c-1.4,0-2.8-0.3-4.1-0.9c-1.3-0.6-2.4-1.4-3.3-2.4c-0.9-1-1.7-2.2-2.2-3.6c-0.5-1.4-0.8-2.8-0.8-4.3
		c0-1.5,0.3-2.9,0.8-4.2c0.5-1.3,1.2-2.5,2.2-3.4c0.9-1,2-1.8,3.2-2.3c1.2-0.6,2.6-0.9,4-0.9s2.8,0.3,4.1,0.9
		c1.3,0.6,2.4,1.4,3.3,2.4c0.9,1,1.7,2.2,2.2,3.5c0.5,1.3,0.8,2.8,0.8,4.3c0,0.1,0,0.2,0,0.3s0,0.3,0,0.3h-19.1
		c0.1,1.3,0.4,2.5,0.9,3.7c0.5,1.1,1.2,2.1,2,2.9c0.8,0.8,1.7,1.5,2.8,1.9c1,0.5,2.1,0.7,3.3,0.7c0.8,0,1.6-0.1,2.3-0.3
		c0.8-0.2,1.5-0.5,2.1-0.9c0.7-0.4,1.2-0.8,1.7-1.4c0.5-0.5,0.9-1.1,1.2-1.7l1.3,0.3c-0.3,0.7-0.7,1.4-1.3,2.1
		c-0.6,0.6-1.3,1.2-2,1.6c-0.8,0.5-1.6,0.8-2.5,1.1S181.7,31.3,180.8,31.3z M189.6,19.7c-0.1-1.3-0.4-2.6-0.9-3.7
		c-0.5-1.1-1.1-2.1-1.9-2.9c-0.8-0.8-1.7-1.5-2.8-1.9c-1-0.5-2.2-0.7-3.4-0.7s-2.3,0.2-3.4,0.7c-1,0.5-2,1.1-2.7,1.9
		c-0.8,0.8-1.4,1.8-1.9,2.9c-0.5,1.1-0.8,2.3-0.8,3.6H189.6z"/>
	<path d="M205.2,10.9c-2,0.1-3.7,0.7-5.1,1.9c-1.4,1.2-2.5,2.7-3,4.7v13.4h-1.4V9.6h1.4V15c0.7-1.5,1.7-2.7,3-3.7
		c1.2-1,2.5-1.5,3.9-1.7c0.3,0,0.5,0,0.7,0s0.4,0,0.6,0V10.9z"/>
	<path d="M218.3,29.9c-0.1,0-0.2,0.1-0.4,0.2s-0.5,0.3-0.9,0.4c-0.4,0.2-0.8,0.3-1.3,0.4s-1,0.2-1.6,0.2c-0.5,0-1-0.1-1.5-0.2
		s-0.9-0.4-1.3-0.7c-0.4-0.3-0.6-0.7-0.9-1.1s-0.3-0.9-0.3-1.5V10.8h-3V9.6h3V2.3h1.4v7.3h5.1v1.2h-5.1v16.6
		c0.1,0.8,0.4,1.4,0.9,1.8s1.2,0.6,1.9,0.6c0.4,0,0.9,0,1.3-0.1c0.4-0.1,0.8-0.2,1.1-0.3c0.3-0.1,0.6-0.2,0.7-0.3
		c0.2-0.1,0.3-0.2,0.3-0.2L218.3,29.9z"/>
	<path d="M230.8,31.3c-1.4,0-2.8-0.3-4.1-0.9c-1.3-0.6-2.4-1.4-3.3-2.4c-0.9-1-1.7-2.2-2.2-3.6c-0.5-1.4-0.8-2.8-0.8-4.3
		c0-1.5,0.3-2.9,0.8-4.2c0.5-1.3,1.2-2.5,2.2-3.4c0.9-1,2-1.8,3.2-2.3c1.2-0.6,2.6-0.9,4-0.9s2.8,0.3,4.1,0.9
		c1.3,0.6,2.4,1.4,3.3,2.4c0.9,1,1.7,2.2,2.2,3.5c0.5,1.3,0.8,2.8,0.8,4.3c0,0.1,0,0.2,0,0.3s0,0.3,0,0.3h-19.1
		c0.1,1.3,0.4,2.5,0.9,3.7c0.5,1.1,1.2,2.1,2,2.9c0.8,0.8,1.7,1.5,2.8,1.9c1,0.5,2.1,0.7,3.3,0.7c0.8,0,1.6-0.1,2.3-0.3
		c0.8-0.2,1.5-0.5,2.1-0.9c0.7-0.4,1.2-0.8,1.7-1.4c0.5-0.5,0.9-1.1,1.2-1.7l1.3,0.3c-0.3,0.7-0.7,1.4-1.3,2.1
		c-0.6,0.6-1.3,1.2-2,1.6c-0.8,0.5-1.6,0.8-2.5,1.1S231.7,31.3,230.8,31.3z M239.6,19.7c-0.1-1.3-0.4-2.6-0.9-3.7
		c-0.5-1.1-1.1-2.1-1.9-2.9c-0.8-0.8-1.7-1.5-2.8-1.9c-1-0.5-2.2-0.7-3.4-0.7s-2.3,0.2-3.4,0.7c-1,0.5-2,1.1-2.7,1.9
		c-0.8,0.8-1.4,1.8-1.9,2.9c-0.5,1.1-0.8,2.3-0.8,3.6H239.6z"/>
	<path d="M254.6,31.3c-1.4,0-2.8-0.3-4.1-0.9c-1.3-0.6-2.4-1.4-3.3-2.4c-0.9-1-1.7-2.2-2.2-3.6c-0.5-1.4-0.8-2.8-0.8-4.3
		c0-1.5,0.3-2.9,0.8-4.2c0.5-1.3,1.2-2.5,2.2-3.4c0.9-1,2-1.8,3.2-2.3c1.2-0.6,2.6-0.9,4-0.9s2.8,0.3,4.1,0.9
		c1.3,0.6,2.4,1.4,3.3,2.4c0.9,1,1.7,2.2,2.2,3.5c0.5,1.3,0.8,2.8,0.8,4.3c0,0.1,0,0.2,0,0.3s0,0.3,0,0.3h-19.1
		c0.1,1.3,0.4,2.5,0.9,3.7c0.5,1.1,1.2,2.1,2,2.9c0.8,0.8,1.7,1.5,2.8,1.9c1,0.5,2.1,0.7,3.3,0.7c0.8,0,1.6-0.1,2.3-0.3
		c0.8-0.2,1.5-0.5,2.1-0.9c0.7-0.4,1.2-0.8,1.7-1.4c0.5-0.5,0.9-1.1,1.2-1.7l1.3,0.3c-0.3,0.7-0.7,1.4-1.3,2.1
		c-0.6,0.6-1.3,1.2-2,1.6c-0.8,0.5-1.6,0.8-2.5,1.1S255.6,31.3,254.6,31.3z M263.4,19.7c-0.1-1.3-0.4-2.6-0.9-3.7
		c-0.5-1.1-1.1-2.1-1.9-2.9c-0.8-0.8-1.7-1.5-2.8-1.9c-1-0.5-2.2-0.7-3.4-0.7s-2.3,0.2-3.4,0.7c-1,0.5-2,1.1-2.7,1.9
		c-0.8,0.8-1.4,1.8-1.9,2.9c-0.5,1.1-0.8,2.3-0.8,3.6H263.4z"/>
	<path d="M286.4,30.9H285V19c0-2.9-0.4-5.1-1.2-6.4s-2.1-2-3.9-2c-1,0-1.9,0.2-2.9,0.5c-0.9,0.4-1.8,0.8-2.6,1.5
		c-0.8,0.6-1.5,1.4-2.1,2.2c-0.6,0.8-1.1,1.8-1.3,2.8v13.3h-1.4V9.6h1.3v5.3c0.4-0.8,1-1.6,1.7-2.3c0.7-0.7,1.4-1.3,2.2-1.8
		c0.8-0.5,1.7-0.9,2.6-1.1c0.9-0.3,1.9-0.4,2.8-0.4c2.2,0,3.9,0.8,4.8,2.4c1,1.6,1.5,4,1.5,7.2V30.9z"/>
</g>
<g>
	<path d="M19.2,29.1v1.3H0V1.3h18.9v1.3H1.4v12.3h15.3v1.3H1.4v12.9H19.2z"/>
	<path d="M34.1,10.4c-2,0.1-3.7,0.7-5.1,1.9c-1.4,1.2-2.5,2.7-3,4.7v13.4h-1.4V9.1h1.4v5.4c0.7-1.5,1.7-2.7,3-3.7
		c1.2-1,2.5-1.5,3.9-1.7c0.3,0,0.5,0,0.7,0s0.4,0,0.6,0V10.4z"/>
	<path d="M38.2,3.9V0.5h1.4v3.4H38.2z M38.2,30.4V9.1h1.4v21.3H38.2z"/>
	<path d="M44.7,19.7c0-1.5,0.3-3,0.8-4.3c0.5-1.3,1.2-2.5,2.2-3.5c0.9-1,2-1.8,3.3-2.3c1.3-0.6,2.6-0.8,4.1-0.8
		c1.9,0,3.5,0.4,4.9,1.3c1.4,0.9,2.5,2,3.3,3.5l-1.4,0.5c-0.7-1.3-1.6-2.2-2.8-3c-1.2-0.7-2.6-1.1-4.1-1.1c-1.2,0-2.4,0.2-3.5,0.7
		c-1.1,0.5-2,1.2-2.8,2c-0.8,0.9-1.4,1.9-1.9,3.1c-0.5,1.2-0.7,2.4-0.7,3.8c0,1.3,0.2,2.6,0.7,3.8c0.5,1.2,1.1,2.2,1.9,3.1
		c0.8,0.9,1.7,1.6,2.8,2.1c1.1,0.5,2.2,0.8,3.4,0.8c0.8,0,1.6-0.1,2.4-0.3c0.8-0.2,1.5-0.5,2.2-0.9s1.2-0.8,1.7-1.3
		c0.5-0.5,0.8-1,1-1.6l1.4,0.4c-0.2,0.7-0.6,1.4-1.2,2c-0.5,0.6-1.2,1.2-1.9,1.6c-0.8,0.5-1.6,0.8-2.5,1.1c-0.9,0.3-1.8,0.4-2.8,0.4
		c-1.4,0-2.8-0.3-4.1-0.9c-1.3-0.6-2.4-1.4-3.3-2.4c-0.9-1-1.7-2.2-2.2-3.5C45,22.7,44.7,21.2,44.7,19.7z"/>
	<path d="M69.2,30.4V1.3h9.5c2.3,0,4.3,0.4,6,1.1c1.7,0.8,3.1,1.8,4.3,3.1s2,2.8,2.6,4.6c0.6,1.8,0.9,3.6,0.9,5.6c0,2.2-0.3,4.2-1,6
		c-0.6,1.8-1.6,3.3-2.7,4.6c-1.2,1.3-2.6,2.3-4.3,3c-1.7,0.7-3.6,1-5.7,1H69.2z M91,15.8c0-1.9-0.3-3.7-0.8-5.3s-1.3-3-2.4-4.2
		c-1-1.2-2.3-2.1-3.9-2.7c-1.5-0.7-3.3-1-5.3-1h-8.1v26.5h8.1c2,0,3.8-0.3,5.4-1c1.5-0.7,2.8-1.6,3.9-2.8c1-1.2,1.8-2.6,2.3-4.2
		C90.7,19.5,91,17.7,91,15.8z"/>
	<path d="M106.7,30.8c-1.4,0-2.8-0.3-4-0.9c-1.2-0.6-2.3-1.4-3.3-2.4c-0.9-1-1.7-2.2-2.2-3.5c-0.5-1.3-0.8-2.7-0.8-4.2
		c0-1.5,0.3-2.9,0.8-4.3s1.3-2.5,2.2-3.5c0.9-1,2-1.8,3.3-2.4c1.2-0.6,2.6-0.9,4-0.9c1.4,0,2.8,0.3,4,0.9c1.3,0.6,2.4,1.4,3.3,2.4
		c0.9,1,1.7,2.2,2.2,3.5c0.5,1.3,0.8,2.8,0.8,4.3c0,1.5-0.3,2.9-0.8,4.2c-0.5,1.3-1.3,2.5-2.2,3.5c-0.9,1-2,1.8-3.3,2.4
		C109.4,30.5,108.1,30.8,106.7,30.8z M97.8,19.9c0,1.3,0.2,2.6,0.7,3.7c0.5,1.2,1.1,2.2,1.9,3.1c0.8,0.9,1.7,1.6,2.8,2.1
		c1.1,0.5,2.2,0.8,3.4,0.8c1.2,0,2.3-0.3,3.4-0.8c1.1-0.5,2-1.2,2.8-2.1c0.8-0.9,1.4-1.9,1.9-3.1c0.5-1.2,0.7-2.4,0.7-3.8
		c0-1.3-0.2-2.6-0.7-3.8c-0.5-1.2-1.1-2.2-1.9-3.1c-0.8-0.9-1.7-1.6-2.8-2.1c-1.1-0.5-2.2-0.8-3.4-0.8c-1.2,0-2.3,0.3-3.4,0.8
		c-1.1,0.5-2,1.2-2.8,2.1s-1.4,1.9-1.9,3.1C98.1,17.3,97.8,18.6,97.8,19.9z"/>
	<path d="M131.6,30.8c-0.8,0-1.6-0.1-2.4-0.4c-0.8-0.2-1.6-0.6-2.3-1c-0.7-0.4-1.4-0.9-2-1.5c-0.6-0.6-1.1-1.2-1.5-1.9v4.3h-1.3V0.5
		h1.4v13.4c1-1.5,2.3-2.8,3.6-3.7c1.4-1,3-1.4,4.9-1.4c1.5,0,2.9,0.3,4.1,1c1.2,0.7,2.2,1.5,3.1,2.5c0.8,1,1.5,2.2,1.9,3.5
		c0.5,1.3,0.7,2.7,0.7,4c0,1.4-0.3,2.8-0.8,4.2c-0.5,1.3-1.2,2.5-2.2,3.5c-0.9,1-2,1.8-3.3,2.4C134.4,30.5,133,30.8,131.6,30.8z
		 M131.4,29.5c1.3,0,2.5-0.3,3.6-0.8s2-1.3,2.8-2.2c0.8-0.9,1.4-1.9,1.9-3.1c0.4-1.2,0.7-2.3,0.7-3.5c0-1.3-0.2-2.5-0.6-3.6
		c-0.4-1.2-1-2.2-1.8-3.1c-0.8-0.9-1.7-1.6-2.7-2.2c-1.1-0.5-2.2-0.8-3.5-0.8c-1,0-1.9,0.2-2.7,0.5c-0.8,0.3-1.6,0.8-2.3,1.3
		c-0.7,0.5-1.3,1.2-1.9,1.9c-0.5,0.7-1,1.5-1.4,2.3v7.4c0.1,0.8,0.4,1.6,0.9,2.3c0.5,0.7,1.2,1.4,2,1.9c0.8,0.6,1.6,1,2.5,1.3
		S130.6,29.5,131.4,29.5z"/>
	<path d="M156.5,30.8c-0.8,0-1.6-0.1-2.4-0.4c-0.8-0.2-1.6-0.6-2.3-1c-0.7-0.4-1.4-0.9-2-1.5c-0.6-0.6-1.1-1.2-1.5-1.9v4.3h-1.3V0.5
		h1.4v13.4c1-1.5,2.3-2.8,3.6-3.7c1.4-1,3-1.4,4.9-1.4c1.5,0,2.9,0.3,4.1,1c1.2,0.7,2.2,1.5,3.1,2.5c0.8,1,1.5,2.2,1.9,3.5
		c0.5,1.3,0.7,2.7,0.7,4c0,1.4-0.3,2.8-0.8,4.2c-0.5,1.3-1.2,2.5-2.2,3.5c-0.9,1-2,1.8-3.3,2.4C159.2,30.5,157.9,30.8,156.5,30.8z
		 M156.3,29.5c1.3,0,2.5-0.3,3.6-0.8c1.1-0.6,2-1.3,2.8-2.2c0.8-0.9,1.4-1.9,1.9-3.1c0.4-1.2,0.7-2.3,0.7-3.5c0-1.3-0.2-2.5-0.6-3.6
		c-0.4-1.2-1-2.2-1.8-3.1c-0.8-0.9-1.7-1.6-2.7-2.2c-1.1-0.5-2.2-0.8-3.5-0.8c-1,0-1.9,0.2-2.7,0.5c-0.8,0.3-1.6,0.8-2.3,1.3
		c-0.7,0.5-1.3,1.2-1.9,1.9c-0.5,0.7-1,1.5-1.4,2.3v7.4c0.1,0.8,0.4,1.6,0.9,2.3s1.2,1.4,2,1.9c0.8,0.6,1.6,1,2.5,1.3
		S155.5,29.5,156.3,29.5z"/>
	<path d="M180.8,30.8c-1.4,0-2.8-0.3-4.1-0.9c-1.3-0.6-2.4-1.4-3.3-2.4c-0.9-1-1.7-2.2-2.2-3.6c-0.5-1.4-0.8-2.8-0.8-4.3
		c0-1.5,0.3-2.9,0.8-4.2c0.5-1.3,1.2-2.5,2.2-3.4c0.9-1,2-1.8,3.2-2.3c1.2-0.6,2.6-0.9,4-0.9s2.8,0.3,4.1,0.9
		c1.3,0.6,2.4,1.4,3.3,2.4c0.9,1,1.7,2.2,2.2,3.5c0.5,1.3,0.8,2.8,0.8,4.3c0,0.1,0,0.2,0,0.3s0,0.3,0,0.3h-19.1
		c0.1,1.3,0.4,2.5,0.9,3.7c0.5,1.1,1.2,2.1,2,2.9c0.8,0.8,1.7,1.5,2.8,1.9c1,0.5,2.1,0.7,3.3,0.7c0.8,0,1.6-0.1,2.3-0.3
		c0.8-0.2,1.5-0.5,2.1-0.9c0.7-0.4,1.2-0.8,1.7-1.4c0.5-0.5,0.9-1.1,1.2-1.7l1.3,0.3c-0.3,0.7-0.7,1.4-1.3,2.1
		c-0.6,0.6-1.3,1.2-2,1.6c-0.8,0.5-1.6,0.8-2.5,1.1S181.7,30.8,180.8,30.8z M189.6,19.2c-0.1-1.3-0.4-2.6-0.9-3.7
		c-0.5-1.1-1.1-2.1-1.9-2.9c-0.8-0.8-1.7-1.5-2.8-1.9c-1-0.5-2.2-0.7-3.4-0.7s-2.3,0.2-3.4,0.7c-1,0.5-2,1.1-2.7,1.9
		c-0.8,0.8-1.4,1.8-1.9,2.9c-0.5,1.1-0.8,2.3-0.8,3.6H189.6z"/>
	<path d="M205.2,10.4c-2,0.1-3.7,0.7-5.1,1.9c-1.4,1.2-2.5,2.7-3,4.7v13.4h-1.4V9.1h1.4v5.4c0.7-1.5,1.7-2.7,3-3.7
		c1.2-1,2.5-1.5,3.9-1.7c0.3,0,0.5,0,0.7,0s0.4,0,0.6,0V10.4z"/>
	<path d="M218.3,29.4c-0.1,0-0.2,0.1-0.4,0.2s-0.5,0.3-0.9,0.4c-0.4,0.2-0.8,0.3-1.3,0.4s-1,0.2-1.6,0.2c-0.5,0-1-0.1-1.5-0.2
		s-0.9-0.4-1.3-0.7c-0.4-0.3-0.6-0.7-0.9-1.1s-0.3-0.9-0.3-1.5V10.3h-3V9.1h3V1.8h1.4v7.3h5.1v1.2h-5.1v16.6
		c0.1,0.8,0.4,1.4,0.9,1.8s1.2,0.6,1.9,0.6c0.4,0,0.9,0,1.3-0.1c0.4-0.1,0.8-0.2,1.1-0.3c0.3-0.1,0.6-0.2,0.7-0.3
		c0.2-0.1,0.3-0.2,0.3-0.2L218.3,29.4z"/>
	<path d="M230.8,30.8c-1.4,0-2.8-0.3-4.1-0.9c-1.3-0.6-2.4-1.4-3.3-2.4c-0.9-1-1.7-2.2-2.2-3.6c-0.5-1.4-0.8-2.8-0.8-4.3
		c0-1.5,0.3-2.9,0.8-4.2c0.5-1.3,1.2-2.5,2.2-3.4c0.9-1,2-1.8,3.2-2.3c1.2-0.6,2.6-0.9,4-0.9s2.8,0.3,4.1,0.9
		c1.3,0.6,2.4,1.4,3.3,2.4c0.9,1,1.7,2.2,2.2,3.5c0.5,1.3,0.8,2.8,0.8,4.3c0,0.1,0,0.2,0,0.3s0,0.3,0,0.3h-19.1
		c0.1,1.3,0.4,2.5,0.9,3.7c0.5,1.1,1.2,2.1,2,2.9c0.8,0.8,1.7,1.5,2.8,1.9c1,0.5,2.1,0.7,3.3,0.7c0.8,0,1.6-0.1,2.3-0.3
		c0.8-0.2,1.5-0.5,2.1-0.9c0.7-0.4,1.2-0.8,1.7-1.4c0.5-0.5,0.9-1.1,1.2-1.7l1.3,0.3c-0.3,0.7-0.7,1.4-1.3,2.1
		c-0.6,0.6-1.3,1.2-2,1.6c-0.8,0.5-1.6,0.8-2.5,1.1S231.7,30.8,230.8,30.8z M239.6,19.2c-0.1-1.3-0.4-2.6-0.9-3.7
		c-0.5-1.1-1.1-2.1-1.9-2.9c-0.8-0.8-1.7-1.5-2.8-1.9c-1-0.5-2.2-0.7-3.4-0.7s-2.3,0.2-3.4,0.7c-1,0.5-2,1.1-2.7,1.9
		c-0.8,0.8-1.4,1.8-1.9,2.9c-0.5,1.1-0.8,2.3-0.8,3.6H239.6z"/>
	<path d="M254.6,30.8c-1.4,0-2.8-0.3-4.1-0.9c-1.3-0.6-2.4-1.4-3.3-2.4c-0.9-1-1.7-2.2-2.2-3.6c-0.5-1.4-0.8-2.8-0.8-4.3
		c0-1.5,0.3-2.9,0.8-4.2c0.5-1.3,1.2-2.5,2.2-3.4c0.9-1,2-1.8,3.2-2.3c1.2-0.6,2.6-0.9,4-0.9s2.8,0.3,4.1,0.9
		c1.3,0.6,2.4,1.4,3.3,2.4c0.9,1,1.7,2.2,2.2,3.5c0.5,1.3,0.8,2.8,0.8,4.3c0,0.1,0,0.2,0,0.3s0,0.3,0,0.3h-19.1
		c0.1,1.3,0.4,2.5,0.9,3.7c0.5,1.1,1.2,2.1,2,2.9c0.8,0.8,1.7,1.5,2.8,1.9c1,0.5,2.1,0.7,3.3,0.7c0.8,0,1.6-0.1,2.3-0.3
		c0.8-0.2,1.5-0.5,2.1-0.9c0.7-0.4,1.2-0.8,1.7-1.4c0.5-0.5,0.9-1.1,1.2-1.7l1.3,0.3c-0.3,0.7-0.7,1.4-1.3,2.1
		c-0.6,0.6-1.3,1.2-2,1.6c-0.8,0.5-1.6,0.8-2.5,1.1S255.6,30.8,254.6,30.8z M263.4,19.2c-0.1-1.3-0.4-2.6-0.9-3.7
		c-0.5-1.1-1.1-2.1-1.9-2.9c-0.8-0.8-1.7-1.5-2.8-1.9c-1-0.5-2.2-0.7-3.4-0.7s-2.3,0.2-3.4,0.7c-1,0.5-2,1.1-2.7,1.9
		c-0.8,0.8-1.4,1.8-1.9,2.9c-0.5,1.1-0.8,2.3-0.8,3.6H263.4z"/>
	<path d="M286.4,30.4H285V18.5c0-2.9-0.4-5.1-1.2-6.4s-2.1-2-3.9-2c-1,0-1.9,0.2-2.9,0.5c-0.9,0.4-1.8,0.8-2.6,1.5
		c-0.8,0.6-1.5,1.4-2.1,2.2c-0.6,0.8-1.1,1.8-1.3,2.8v13.3h-1.4V9.1h1.3v5.3c0.4-0.8,1-1.6,1.7-2.3c0.7-0.7,1.4-1.3,2.2-1.8
		c0.8-0.5,1.7-0.9,2.6-1.1c0.9-0.3,1.9-0.4,2.8-0.4c2.2,0,3.9,0.8,4.8,2.4c1,1.6,1.5,4,1.5,7.2V30.4z"/>
</g>
<g>
	<path fill="#FFFFFF" d="M19.7,28.6v1.3H0.5V0.8h18.9v1.3H1.9v12.3h15.3v1.3H1.9v12.9H19.7z"/>
	<path fill="#FFFFFF" d="M34.6,9.9c-2,0.1-3.7,0.7-5.1,1.9c-1.4,1.2-2.5,2.7-3,4.7v13.4h-1.4V8.6h1.4V14c0.7-1.5,1.7-2.7,3-3.7
		c1.2-1,2.5-1.5,3.9-1.7c0.3,0,0.5,0,0.7,0s0.4,0,0.6,0V9.9z"/>
	<path fill="#FFFFFF" d="M38.7,3.4V0h1.4v3.4H38.7z M38.7,29.9V8.6h1.4v21.3H38.7z"/>
	<path fill="#FFFFFF" d="M45.2,19.2c0-1.5,0.3-3,0.8-4.3c0.5-1.3,1.2-2.5,2.2-3.5c0.9-1,2-1.8,3.3-2.3c1.3-0.6,2.6-0.8,4.1-0.8
		c1.9,0,3.5,0.4,4.9,1.3c1.4,0.9,2.5,2,3.3,3.5l-1.4,0.5c-0.7-1.3-1.6-2.2-2.8-3c-1.2-0.7-2.6-1.1-4.1-1.1c-1.2,0-2.4,0.2-3.5,0.7
		c-1.1,0.5-2,1.2-2.8,2c-0.8,0.9-1.4,1.9-1.9,3.1c-0.5,1.2-0.7,2.4-0.7,3.8c0,1.3,0.2,2.6,0.7,3.8c0.5,1.2,1.1,2.2,1.9,3.1
		c0.8,0.9,1.7,1.6,2.8,2.1c1.1,0.5,2.2,0.8,3.4,0.8c0.8,0,1.6-0.1,2.4-0.3c0.8-0.2,1.5-0.5,2.2-0.9s1.2-0.8,1.7-1.3
		c0.5-0.5,0.8-1,1-1.6l1.4,0.4c-0.2,0.7-0.6,1.4-1.2,2c-0.5,0.6-1.2,1.2-1.9,1.6c-0.8,0.5-1.6,0.8-2.5,1.1c-0.9,0.3-1.8,0.4-2.8,0.4
		c-1.4,0-2.8-0.3-4.1-0.9c-1.3-0.6-2.4-1.4-3.3-2.4c-0.9-1-1.7-2.2-2.2-3.5C45.5,22.2,45.2,20.7,45.2,19.2z"/>
	<path fill="#FFFFFF" d="M69.7,29.9V0.8h9.5c2.3,0,4.3,0.4,6,1.1c1.7,0.8,3.1,1.8,4.3,3.1s2,2.8,2.6,4.6c0.6,1.8,0.9,3.6,0.9,5.6
		c0,2.2-0.3,4.2-1,6c-0.6,1.8-1.6,3.3-2.7,4.6c-1.2,1.3-2.6,2.3-4.3,3c-1.7,0.7-3.6,1-5.7,1H69.7z M91.5,15.3c0-1.9-0.3-3.7-0.8-5.3
		s-1.3-3-2.4-4.2c-1-1.2-2.3-2.1-3.9-2.7c-1.5-0.7-3.3-1-5.3-1h-8.1v26.5h8.1c2,0,3.8-0.3,5.4-1c1.5-0.7,2.8-1.6,3.9-2.8
		c1-1.2,1.8-2.6,2.3-4.2C91.2,19,91.5,17.2,91.5,15.3z"/>
	<path fill="#FFFFFF" d="M107.2,30.3c-1.4,0-2.8-0.3-4-0.9c-1.2-0.6-2.3-1.4-3.3-2.4c-0.9-1-1.7-2.2-2.2-3.5
		c-0.5-1.3-0.8-2.7-0.8-4.2c0-1.5,0.3-2.9,0.8-4.3s1.3-2.5,2.2-3.5c0.9-1,2-1.8,3.3-2.4c1.2-0.6,2.6-0.9,4-0.9c1.4,0,2.8,0.3,4,0.9
		c1.3,0.6,2.4,1.4,3.3,2.4c0.9,1,1.7,2.2,2.2,3.5c0.5,1.3,0.8,2.8,0.8,4.3c0,1.5-0.3,2.9-0.8,4.2c-0.5,1.3-1.3,2.5-2.2,3.5
		c-0.9,1-2,1.8-3.3,2.4C109.9,30,108.6,30.3,107.2,30.3z M98.3,19.4c0,1.3,0.2,2.6,0.7,3.7c0.5,1.2,1.1,2.2,1.9,3.1
		c0.8,0.9,1.7,1.6,2.8,2.1c1.1,0.5,2.2,0.8,3.4,0.8c1.2,0,2.3-0.3,3.4-0.8c1.1-0.5,2-1.2,2.8-2.1c0.8-0.9,1.4-1.9,1.9-3.1
		c0.5-1.2,0.7-2.4,0.7-3.8c0-1.3-0.2-2.6-0.7-3.8c-0.5-1.2-1.1-2.2-1.9-3.1c-0.8-0.9-1.7-1.6-2.8-2.1c-1.1-0.5-2.2-0.8-3.4-0.8
		c-1.2,0-2.3,0.3-3.4,0.8c-1.1,0.5-2,1.2-2.8,2.1s-1.4,1.9-1.9,3.1C98.6,16.8,98.3,18.1,98.3,19.4z"/>
	<path fill="#FFFFFF" d="M132.1,30.3c-0.8,0-1.6-0.1-2.4-0.4c-0.8-0.2-1.6-0.6-2.3-1c-0.7-0.4-1.4-0.9-2-1.5
		c-0.6-0.6-1.1-1.2-1.5-1.9v4.3h-1.3V0h1.4v13.4c1-1.5,2.3-2.8,3.6-3.7c1.4-1,3-1.4,4.9-1.4c1.5,0,2.9,0.3,4.1,1
		c1.2,0.7,2.2,1.5,3.1,2.5c0.8,1,1.5,2.2,1.9,3.5c0.5,1.3,0.7,2.7,0.7,4c0,1.4-0.3,2.8-0.8,4.2c-0.5,1.3-1.2,2.5-2.2,3.5
		c-0.9,1-2,1.8-3.3,2.4C134.9,30,133.5,30.3,132.1,30.3z M131.9,29c1.3,0,2.5-0.3,3.6-0.8s2-1.3,2.8-2.2c0.8-0.9,1.4-1.9,1.9-3.1
		c0.4-1.2,0.7-2.3,0.7-3.5c0-1.3-0.2-2.5-0.6-3.6c-0.4-1.2-1-2.2-1.8-3.1c-0.8-0.9-1.7-1.6-2.7-2.2c-1.1-0.5-2.2-0.8-3.5-0.8
		c-1,0-1.9,0.2-2.7,0.5c-0.8,0.3-1.6,0.8-2.3,1.3c-0.7,0.5-1.3,1.2-1.9,1.9c-0.5,0.7-1,1.5-1.4,2.3V23c0.1,0.8,0.4,1.6,0.9,2.3
		c0.5,0.7,1.2,1.4,2,1.9c0.8,0.6,1.6,1,2.5,1.3S131.1,29,131.9,29z"/>
	<path fill="#FFFFFF" d="M157,30.3c-0.8,0-1.6-0.1-2.4-0.4c-0.8-0.2-1.6-0.6-2.3-1c-0.7-0.4-1.4-0.9-2-1.5c-0.6-0.6-1.1-1.2-1.5-1.9
		v4.3h-1.3V0h1.4v13.4c1-1.5,2.3-2.8,3.6-3.7c1.4-1,3-1.4,4.9-1.4c1.5,0,2.9,0.3,4.1,1c1.2,0.7,2.2,1.5,3.1,2.5
		c0.8,1,1.5,2.2,1.9,3.5c0.5,1.3,0.7,2.7,0.7,4c0,1.4-0.3,2.8-0.8,4.2c-0.5,1.3-1.2,2.5-2.2,3.5c-0.9,1-2,1.8-3.3,2.4
		C159.7,30,158.4,30.3,157,30.3z M156.8,29c1.3,0,2.5-0.3,3.6-0.8c1.1-0.6,2-1.3,2.8-2.2c0.8-0.9,1.4-1.9,1.9-3.1
		c0.4-1.2,0.7-2.3,0.7-3.5c0-1.3-0.2-2.5-0.6-3.6c-0.4-1.2-1-2.2-1.8-3.1c-0.8-0.9-1.7-1.6-2.7-2.2c-1.1-0.5-2.2-0.8-3.5-0.8
		c-1,0-1.9,0.2-2.7,0.5c-0.8,0.3-1.6,0.8-2.3,1.3c-0.7,0.5-1.3,1.2-1.9,1.9c-0.5,0.7-1,1.5-1.4,2.3V23c0.1,0.8,0.4,1.6,0.9,2.3
		s1.2,1.4,2,1.9c0.8,0.6,1.6,1,2.5,1.3S156,29,156.8,29z"/>
	<path fill="#FFFFFF" d="M181.3,30.3c-1.4,0-2.8-0.3-4.1-0.9c-1.3-0.6-2.4-1.4-3.3-2.4c-0.9-1-1.7-2.2-2.2-3.6
		c-0.5-1.4-0.8-2.8-0.8-4.3c0-1.5,0.3-2.9,0.8-4.2c0.5-1.3,1.2-2.5,2.2-3.4c0.9-1,2-1.8,3.2-2.3c1.2-0.6,2.6-0.9,4-0.9
		s2.8,0.3,4.1,0.9c1.3,0.6,2.4,1.4,3.3,2.4c0.9,1,1.7,2.2,2.2,3.5c0.5,1.3,0.8,2.8,0.8,4.3c0,0.1,0,0.2,0,0.3s0,0.3,0,0.3h-19.1
		c0.1,1.3,0.4,2.5,0.9,3.7c0.5,1.1,1.2,2.1,2,2.9c0.8,0.8,1.7,1.5,2.8,1.9c1,0.5,2.1,0.7,3.3,0.7c0.8,0,1.6-0.1,2.3-0.3
		c0.8-0.2,1.5-0.5,2.1-0.9c0.7-0.4,1.2-0.8,1.7-1.4c0.5-0.5,0.9-1.1,1.2-1.7l1.3,0.3c-0.3,0.7-0.7,1.4-1.3,2.1
		c-0.6,0.6-1.3,1.2-2,1.6c-0.8,0.5-1.6,0.8-2.5,1.1S182.2,30.3,181.3,30.3z M190.1,18.7c-0.1-1.3-0.4-2.6-0.9-3.7
		c-0.5-1.1-1.1-2.1-1.9-2.9c-0.8-0.8-1.7-1.5-2.8-1.9c-1-0.5-2.2-0.7-3.4-0.7s-2.3,0.2-3.4,0.7c-1,0.5-2,1.1-2.7,1.9
		c-0.8,0.8-1.4,1.8-1.9,2.9c-0.5,1.1-0.8,2.3-0.8,3.6H190.1z"/>
	<path fill="#FFFFFF" d="M205.7,9.9c-2,0.1-3.7,0.7-5.1,1.9c-1.4,1.2-2.5,2.7-3,4.7v13.4h-1.4V8.6h1.4V14c0.7-1.5,1.7-2.7,3-3.7
		c1.2-1,2.5-1.5,3.9-1.7c0.3,0,0.5,0,0.7,0s0.4,0,0.6,0V9.9z"/>
	<path fill="#FFFFFF" d="M218.8,28.9c-0.1,0-0.2,0.1-0.4,0.2s-0.5,0.3-0.9,0.4c-0.4,0.2-0.8,0.3-1.3,0.4s-1,0.2-1.6,0.2
		c-0.5,0-1-0.1-1.5-0.2s-0.9-0.4-1.3-0.7c-0.4-0.3-0.6-0.7-0.9-1.1s-0.3-0.9-0.3-1.5V9.8h-3V8.6h3V1.3h1.4v7.3h5.1v1.2h-5.1v16.6
		c0.1,0.8,0.4,1.4,0.9,1.8s1.2,0.6,1.9,0.6c0.4,0,0.9,0,1.3-0.1c0.4-0.1,0.8-0.2,1.1-0.3c0.3-0.1,0.6-0.2,0.7-0.3
		c0.2-0.1,0.3-0.2,0.3-0.2L218.8,28.9z"/>
	<path fill="#FFFFFF" d="M231.3,30.3c-1.4,0-2.8-0.3-4.1-0.9c-1.3-0.6-2.4-1.4-3.3-2.4c-0.9-1-1.7-2.2-2.2-3.6
		c-0.5-1.4-0.8-2.8-0.8-4.3c0-1.5,0.3-2.9,0.8-4.2c0.5-1.3,1.2-2.5,2.2-3.4c0.9-1,2-1.8,3.2-2.3c1.2-0.6,2.6-0.9,4-0.9
		s2.8,0.3,4.1,0.9c1.3,0.6,2.4,1.4,3.3,2.4c0.9,1,1.7,2.2,2.2,3.5c0.5,1.3,0.8,2.8,0.8,4.3c0,0.1,0,0.2,0,0.3s0,0.3,0,0.3h-19.1
		c0.1,1.3,0.4,2.5,0.9,3.7c0.5,1.1,1.2,2.1,2,2.9c0.8,0.8,1.7,1.5,2.8,1.9c1,0.5,2.1,0.7,3.3,0.7c0.8,0,1.6-0.1,2.3-0.3
		c0.8-0.2,1.5-0.5,2.1-0.9c0.7-0.4,1.2-0.8,1.7-1.4c0.5-0.5,0.9-1.1,1.2-1.7l1.3,0.3c-0.3,0.7-0.7,1.4-1.3,2.1
		c-0.6,0.6-1.3,1.2-2,1.6c-0.8,0.5-1.6,0.8-2.5,1.1S232.2,30.3,231.3,30.3z M240.1,18.7c-0.1-1.3-0.4-2.6-0.9-3.7
		c-0.5-1.1-1.1-2.1-1.9-2.9c-0.8-0.8-1.7-1.5-2.8-1.9c-1-0.5-2.2-0.7-3.4-0.7s-2.3,0.2-3.4,0.7c-1,0.5-2,1.1-2.7,1.9
		c-0.8,0.8-1.4,1.8-1.9,2.9c-0.5,1.1-0.8,2.3-0.8,3.6H240.1z"/>
	<path fill="#FFFFFF" d="M255.1,30.3c-1.4,0-2.8-0.3-4.1-0.9c-1.3-0.6-2.4-1.4-3.3-2.4c-0.9-1-1.7-2.2-2.2-3.6
		c-0.5-1.4-0.8-2.8-0.8-4.3c0-1.5,0.3-2.9,0.8-4.2c0.5-1.3,1.2-2.5,2.2-3.4c0.9-1,2-1.8,3.2-2.3c1.2-0.6,2.6-0.9,4-0.9
		s2.8,0.3,4.1,0.9c1.3,0.6,2.4,1.4,3.3,2.4c0.9,1,1.7,2.2,2.2,3.5c0.5,1.3,0.8,2.8,0.8,4.3c0,0.1,0,0.2,0,0.3s0,0.3,0,0.3h-19.1
		c0.1,1.3,0.4,2.5,0.9,3.7c0.5,1.1,1.2,2.1,2,2.9c0.8,0.8,1.7,1.5,2.8,1.9c1,0.5,2.1,0.7,3.3,0.7c0.8,0,1.6-0.1,2.3-0.3
		c0.8-0.2,1.5-0.5,2.1-0.9c0.7-0.4,1.2-0.8,1.7-1.4c0.5-0.5,0.9-1.1,1.2-1.7l1.3,0.3c-0.3,0.7-0.7,1.4-1.3,2.1
		c-0.6,0.6-1.3,1.2-2,1.6c-0.8,0.5-1.6,0.8-2.5,1.1S256.1,30.3,255.1,30.3z M263.9,18.7c-0.1-1.3-0.4-2.6-0.9-3.7
		c-0.5-1.1-1.1-2.1-1.9-2.9c-0.8-0.8-1.7-1.5-2.8-1.9c-1-0.5-2.2-0.7-3.4-0.7s-2.3,0.2-3.4,0.7c-1,0.5-2,1.1-2.7,1.9
		c-0.8,0.8-1.4,1.8-1.9,2.9c-0.5,1.1-0.8,2.3-0.8,3.6H263.9z"/>
	<path fill="#FFFFFF" d="M286.9,29.9h-1.4V18c0-2.9-0.4-5.1-1.2-6.4s-2.1-2-3.9-2c-1,0-1.9,0.2-2.9,0.5c-0.9,0.4-1.8,0.8-2.6,1.5
		c-0.8,0.6-1.5,1.4-2.1,2.2c-0.6,0.8-1.1,1.8-1.3,2.8v13.3H270V8.6h1.3v5.3c0.4-0.8,1-1.6,1.7-2.3c0.7-0.7,1.4-1.3,2.2-1.8
		c0.8-0.5,1.7-0.9,2.6-1.1c0.9-0.3,1.9-0.4,2.8-0.4c2.2,0,3.9,0.8,4.8,2.4c1,1.6,1.5,4,1.5,7.2V29.9z"/>
</g>
</svg>
