<?xml version="1.0" encoding="utf-8"?>
<!-- Generator: Adobe Illustrator 18.0.0, SVG Export Plug-In . SVG Version: 6.00 Build 0)  -->
<!DOCTYPE svg PUBLIC "-//W3C//DTD SVG 1.1//EN" "http://www.w3.org/Graphics/SVG/1.1/DTD/svg11.dtd">
<svg version="1.1" id="Layer_1" xmlns="http://www.w3.org/2000/svg" xmlns:xlink="http://www.w3.org/1999/xlink" x="0px" y="0px"
	 viewBox="0 0 289 78" enable-background="new 0 0 289 78" xml:space="preserve">
<g>
	<path fill="#37BC9B" d="M263.1,0H0v78h263.1L289,39L263.1,0z M262,76H91V2h171l25,37L262,76z"/>
	<g>
		<g>
			<path fill="#BFBFBF" d="M134.4,46.6v-17h7.2c0.7,0,1.4,0.2,2,0.5c0.6,0.3,1.2,0.7,1.6,1.2c0.4,0.5,0.8,1.1,1,1.7
				c0.2,0.6,0.4,1.3,0.4,1.9c0,0.6-0.1,1.2-0.3,1.8c-0.2,0.6-0.4,1.1-0.8,1.5s-0.7,0.8-1.2,1.2c-0.5,0.3-1,0.5-1.6,0.6l4.2,6.6h-1.9
				l-4-6.3h-5v6.3H134.4z M136.1,38.8h5.6c0.5,0,0.9-0.1,1.4-0.3c0.4-0.2,0.8-0.5,1-0.9c0.3-0.4,0.5-0.8,0.7-1.2
				c0.2-0.5,0.2-1,0.2-1.5c0-0.5-0.1-1-0.3-1.5c-0.2-0.5-0.4-0.9-0.7-1.2c-0.3-0.4-0.7-0.6-1.1-0.8S142,31,141.5,31h-5.4V38.8z"/>
			<path fill="#BFBFBF" d="M155.5,46.8c-0.9,0-1.8-0.2-2.5-0.5c-0.8-0.3-1.4-0.8-2-1.4c-0.6-0.6-1-1.3-1.3-2.1
				c-0.3-0.8-0.5-1.6-0.5-2.5c0-0.9,0.2-1.7,0.5-2.5c0.3-0.8,0.7-1.5,1.3-2c0.6-0.6,1.2-1,2-1.4c0.8-0.3,1.6-0.5,2.5-0.5
				s1.7,0.2,2.5,0.5s1.4,0.8,2,1.4s1,1.3,1.3,2c0.3,0.8,0.5,1.6,0.5,2.4c0,0.1,0,0.3,0,0.4c0,0.1,0,0.2,0,0.3h-10.7
				c0,0.7,0.2,1.3,0.5,1.9c0.3,0.6,0.6,1.1,1,1.5c0.4,0.4,0.9,0.7,1.4,1c0.5,0.2,1.1,0.3,1.7,0.3c0.4,0,0.8-0.1,1.2-0.2
				c0.4-0.1,0.8-0.3,1.1-0.5c0.3-0.2,0.6-0.4,0.9-0.7c0.3-0.3,0.5-0.6,0.6-0.9l1.4,0.4c-0.2,0.5-0.5,0.9-0.8,1.3s-0.8,0.7-1.2,1
				c-0.5,0.3-1,0.5-1.5,0.6C156.6,46.7,156.1,46.8,155.5,46.8z M160.1,39.7c0-0.7-0.2-1.3-0.5-1.8c-0.3-0.6-0.6-1-1-1.4
				c-0.4-0.4-0.9-0.7-1.4-0.9c-0.5-0.2-1.1-0.3-1.7-0.3c-0.6,0-1.2,0.1-1.7,0.3c-0.5,0.2-1,0.5-1.4,0.9c-0.4,0.4-0.7,0.9-1,1.4
				c-0.2,0.6-0.4,1.2-0.4,1.8H160.1z"/>
			<path fill="#BFBFBF" d="M168.4,46.8c-1,0-1.9-0.2-2.9-0.5s-1.7-0.8-2.4-1.4l0.7-1.1c0.7,0.6,1.4,1,2.1,1.3
				c0.7,0.3,1.5,0.4,2.3,0.4c1,0,1.8-0.2,2.4-0.6c0.6-0.4,0.9-1,0.9-1.7c0-0.4-0.1-0.6-0.2-0.9c-0.2-0.2-0.4-0.4-0.7-0.6
				c-0.3-0.2-0.7-0.3-1.2-0.5c-0.5-0.1-1-0.3-1.6-0.4c-0.7-0.2-1.3-0.4-1.9-0.5c-0.5-0.2-1-0.4-1.3-0.6c-0.3-0.2-0.6-0.5-0.8-0.8
				c-0.2-0.3-0.3-0.7-0.3-1.2c0-0.6,0.1-1.2,0.4-1.7c0.2-0.5,0.6-0.9,1-1.2c0.4-0.3,0.9-0.5,1.5-0.7c0.6-0.2,1.2-0.2,1.8-0.2
				c1,0,1.8,0.2,2.6,0.5c0.8,0.3,1.4,0.7,1.9,1.2l-0.8,1c-0.5-0.5-1-0.8-1.7-1.1c-0.7-0.2-1.4-0.4-2.1-0.4c-0.4,0-0.8,0-1.2,0.1
				s-0.7,0.2-1,0.4c-0.3,0.2-0.5,0.4-0.7,0.7c-0.2,0.3-0.2,0.6-0.2,1c0,0.3,0.1,0.6,0.2,0.8c0.1,0.2,0.3,0.4,0.6,0.5
				c0.3,0.2,0.6,0.3,1,0.4c0.4,0.1,0.9,0.2,1.4,0.4c0.8,0.2,1.5,0.4,2.1,0.6c0.6,0.2,1.1,0.4,1.5,0.7s0.7,0.6,0.9,0.9
				c0.2,0.4,0.3,0.8,0.3,1.3c0,1.2-0.4,2.1-1.3,2.7S169.9,46.8,168.4,46.8z"/>
			<path fill="#BFBFBF" d="M179.9,46.8c-1.3,0-2.3-0.5-3-1.4c-0.7-0.9-1-2.3-1-4v-7.3h1.6v7.1c0,2.8,1,4.2,2.9,4.2
				c0.5,0,1-0.1,1.4-0.2c0.5-0.2,0.9-0.4,1.3-0.7c0.4-0.3,0.7-0.7,1.1-1.1c0.3-0.4,0.6-0.9,0.8-1.4v-7.9h1.6v10.4
				c0,0.4,0.2,0.7,0.6,0.7v1.4c-0.3,0-0.5,0.1-0.7,0.1c-0.4,0-0.7-0.1-0.9-0.3c-0.3-0.2-0.4-0.5-0.4-0.8v-1.7
				c-0.6,1-1.3,1.7-2.2,2.3S181,46.8,179.9,46.8z"/>
			<path fill="#BFBFBF" d="M209,46.6h-1.6v-7c0-1.5-0.2-2.5-0.7-3.2c-0.5-0.7-1.1-1-2.1-1c-0.5,0-0.9,0.1-1.4,0.3
				c-0.4,0.2-0.8,0.4-1.2,0.7c-0.4,0.3-0.7,0.7-0.9,1.1c-0.3,0.4-0.5,0.9-0.6,1.5v7.6h-1.6v-7c0-1.5-0.2-2.6-0.7-3.2
				c-0.4-0.7-1.1-1-2.1-1c-0.9,0-1.8,0.3-2.5,1s-1.3,1.5-1.6,2.6v7.7h-1.6V34.1h1.5v2.8c0.5-1,1.2-1.7,2-2.2s1.8-0.8,2.8-0.8
				c1.1,0,1.9,0.3,2.5,0.9c0.6,0.6,1,1.4,1.2,2.3c1.2-2.1,2.8-3.2,4.8-3.2c0.7,0,1.3,0.1,1.8,0.4c0.5,0.3,0.9,0.6,1.2,1.1
				s0.5,1,0.6,1.7c0.1,0.7,0.2,1.4,0.2,2.2V46.6z"/>
			<path fill="#BFBFBF" d="M218,46.8c-0.9,0-1.8-0.2-2.5-0.5c-0.8-0.3-1.4-0.8-2-1.4c-0.6-0.6-1-1.3-1.3-2.1
				c-0.3-0.8-0.5-1.6-0.5-2.5c0-0.9,0.2-1.7,0.5-2.5c0.3-0.8,0.7-1.5,1.3-2c0.6-0.6,1.2-1,2-1.4c0.8-0.3,1.6-0.5,2.5-0.5
				s1.7,0.2,2.5,0.5s1.4,0.8,2,1.4s1,1.3,1.3,2c0.3,0.8,0.5,1.6,0.5,2.4c0,0.1,0,0.3,0,0.4c0,0.1,0,0.2,0,0.3h-10.7
				c0,0.7,0.2,1.3,0.5,1.9c0.3,0.6,0.6,1.1,1,1.5c0.4,0.4,0.9,0.7,1.4,1c0.5,0.2,1.1,0.3,1.7,0.3c0.4,0,0.8-0.1,1.2-0.2
				c0.4-0.1,0.8-0.3,1.1-0.5c0.3-0.2,0.6-0.4,0.9-0.7c0.3-0.3,0.5-0.6,0.6-0.9l1.4,0.4c-0.2,0.5-0.5,0.9-0.8,1.3s-0.8,0.7-1.2,1
				c-0.5,0.3-1,0.5-1.5,0.6C219.1,46.7,218.6,46.8,218,46.8z M222.6,39.7c0-0.7-0.2-1.3-0.5-1.8c-0.3-0.6-0.6-1-1-1.4
				c-0.4-0.4-0.9-0.7-1.4-0.9c-0.5-0.2-1.1-0.3-1.7-0.3c-0.6,0-1.2,0.1-1.7,0.3c-0.5,0.2-1,0.5-1.4,0.9c-0.4,0.4-0.7,0.9-1,1.4
				c-0.2,0.6-0.4,1.2-0.4,1.8H222.6z"/>
		</g>
	</g>
	<g>
		<polyline fill="none" stroke="#D9D9D9" stroke-miterlimit="10" points="47.5,58 29,58 29,15 52.2,15 62.1,24.9 62.1,29.1 		"/>
		<polyline fill="none" stroke="#D9D9D9" stroke-miterlimit="10" points="52.2,15 52.2,24.9 62.2,24.9 		"/>
		<polyline fill="none" stroke="#D9D9D9" stroke-miterlimit="10" points="67.1,49.1 67.1,63 60.5,58 53.9,63 53.9,49.6 		"/>
		<circle fill="none" stroke="#D9D9D9" stroke-miterlimit="10" cx="60.5" cy="43.1" r="3.3"/>
		<path fill="none" stroke="#D9D9D9" stroke-miterlimit="10" d="M67.8,43.2c1-1.3,1.3-3.2,0.4-4.7c-0.9-1.5-2.6-2.3-4.3-2
			c-0.6-1.6-2.1-2.7-3.9-2.7c-1.8,0-3.3,1.1-3.9,2.7c-1.7-0.3-3.4,0.5-4.3,2c-0.9,1.5-0.7,3.4,0.4,4.7c-1,1.3-1.3,3.2-0.4,4.7
			c0.9,1.5,2.6,2.3,4.3,2c0.6,1.6,2.1,2.7,3.9,2.7c1.8,0,3.3-1.1,3.9-2.7c1.7,0.3,3.4-0.5,4.2-2C69.1,46.3,68.9,44.5,67.8,43.2z"/>
	</g>
</g>
</svg>
