<?xml version="1.0" encoding="utf-8"?>
<!-- Generator: Adobe Illustrator 18.0.0, SVG Export Plug-In . SVG Version: 6.00 Build 0)  -->
<!DOCTYPE svg PUBLIC "-//W3C//DTD SVG 1.1//EN" "http://www.w3.org/Graphics/SVG/1.1/DTD/svg11.dtd">
<svg version="1.1" id="Layer_1" xmlns="http://www.w3.org/2000/svg" xmlns:xlink="http://www.w3.org/1999/xlink" x="0px" y="0px"
	 width="76px" height="76px" viewBox="0 0 76 76" enable-background="new 0 0 76 76" xml:space="preserve">
<rect fill="#F6BB42" width="76" height="76"/>
<g>
	<path fill="none" stroke="#FFFFFF" stroke-width="2" stroke-miterlimit="10" d="M56.2,32.2C56.2,22.2,48.1,14,38,14
		s-18.2,8.2-18.2,18.2c0,8,5.2,14.8,12.4,17.3v2.6h11.6v-2.6C51,47,56.2,40.2,56.2,32.2z"/>
	<line fill="none" stroke="#FFFFFF" stroke-width="2" stroke-miterlimit="10" x1="32.2" y1="55.4" x2="43.8" y2="55.4"/>
	<line fill="none" stroke="#FFFFFF" stroke-width="2" stroke-miterlimit="10" x1="32.2" y1="58.7" x2="43.8" y2="58.7"/>
	<line fill="none" stroke="#FFFFFF" stroke-width="2" stroke-miterlimit="10" x1="38" y1="58.7" x2="38" y2="62"/>
	<path fill="none" stroke="#FFFFFF" stroke-width="2" stroke-miterlimit="10" d="M29.7,33c-1,4.1,0.1,7.4,6.9,5.8
		c5.4,4.5,8.5,2.8,9.6-1.7c1.1-4.5-2.9-13.3-7.4-16.6C36.4,26.5,30.9,28,29.7,33z"/>
	<path fill="none" stroke="#FFFFFF" stroke-width="2" stroke-miterlimit="10" d="M38,52.1c0,0-3.5-17.1,0.8-24"/>
</g>
</svg>
