<?xml version="1.0" encoding="utf-8"?>
<!-- Generator: Adobe Illustrator 18.0.0, SVG Export Plug-In . SVG Version: 6.00 Build 0)  -->
<!DOCTYPE svg PUBLIC "-//W3C//DTD SVG 1.1//EN" "http://www.w3.org/Graphics/SVG/1.1/DTD/svg11.dtd">
<svg version="1.1" id="Layer_1" xmlns="http://www.w3.org/2000/svg" xmlns:xlink="http://www.w3.org/1999/xlink" x="0px" y="0px"
	 width="289px" height="78px" viewBox="0 0 289 78" enable-background="new 0 0 289 78" xml:space="preserve">
<g>
	<path fill="#F6BB42" d="M263.1,0H0v78h263.1L289,39L263.1,0z M262,76H91V2h171l25,37L262,76z"/>
	<g>
		<path fill="#FFFFFF" d="M134.6,46.6v-17h7.1c0.7,0,1.4,0.2,2,0.5c0.6,0.3,1.1,0.7,1.6,1.2s0.8,1.1,1,1.7c0.2,0.6,0.4,1.3,0.4,1.9
			c0,0.7-0.1,1.4-0.3,2c-0.2,0.6-0.6,1.2-1,1.7s-0.9,0.9-1.5,1.2c-0.6,0.3-1.3,0.5-2,0.5h-5.5v6.3H134.6z M136.3,38.8h5.4
			c0.5,0,0.9-0.1,1.4-0.3s0.8-0.5,1-0.9c0.3-0.4,0.5-0.8,0.7-1.2c0.2-0.5,0.2-1,0.2-1.5c0-0.5-0.1-1-0.3-1.5s-0.4-0.9-0.7-1.2
			c-0.3-0.4-0.7-0.6-1.1-0.8c-0.4-0.2-0.9-0.3-1.3-0.3h-5.3V38.8z"/>
		<path fill="#FFFFFF" d="M154.3,46.8c-0.9,0-1.7-0.2-2.5-0.5c-0.8-0.3-1.4-0.8-2-1.4c-0.6-0.6-1-1.3-1.3-2.1
			c-0.3-0.8-0.5-1.6-0.5-2.5c0-0.9,0.2-1.7,0.5-2.5c0.3-0.8,0.7-1.5,1.3-2.1s1.2-1.1,2-1.4s1.6-0.5,2.5-0.5c0.9,0,1.7,0.2,2.5,0.5
			s1.4,0.8,2,1.4c0.6,0.6,1,1.3,1.3,2.1c0.3,0.8,0.5,1.6,0.5,2.5c0,0.9-0.2,1.7-0.5,2.5c-0.3,0.8-0.7,1.5-1.3,2.1
			c-0.6,0.6-1.2,1.1-2,1.4C156,46.6,155.2,46.8,154.3,46.8z M149.8,40.4c0,0.7,0.1,1.4,0.3,2c0.2,0.6,0.6,1.1,1,1.6s0.9,0.8,1.4,1.1
			c0.6,0.3,1.1,0.4,1.8,0.4s1.2-0.1,1.8-0.4c0.6-0.3,1-0.6,1.5-1.1c0.4-0.5,0.7-1,1-1.6s0.4-1.3,0.4-2c0-0.7-0.1-1.3-0.4-2
			s-0.6-1.2-1-1.6c-0.4-0.5-0.9-0.8-1.4-1.1c-0.5-0.3-1.1-0.4-1.8-0.4s-1.2,0.1-1.8,0.4c-0.6,0.3-1,0.6-1.4,1.1
			c-0.4,0.5-0.7,1-1,1.6C149.9,39,149.8,39.7,149.8,40.4z"/>
		<path fill="#FFFFFF" d="M169.5,35.5c-1.1,0-2.1,0.3-2.9,0.9c-0.8,0.6-1.4,1.4-1.7,2.4v7.8h-1.6V34.1h1.5v3c0.4-0.9,1-1.6,1.7-2.2
			c0.7-0.6,1.5-0.9,2.3-0.9c0.1,0,0.3,0,0.4,0s0.2,0,0.3,0V35.5z"/>
		<path fill="#FFFFFF" d="M177.9,46c-0.1,0-0.2,0.1-0.4,0.2s-0.4,0.2-0.6,0.2s-0.5,0.2-0.8,0.2c-0.3,0.1-0.6,0.1-1,0.1
			c-0.4,0-0.7,0-1-0.1c-0.3-0.1-0.6-0.2-0.8-0.4s-0.4-0.5-0.6-0.8c-0.1-0.3-0.2-0.7-0.2-1.1v-9h-1.7v-1.3h1.7v-4.2h1.6v4.2h2.9v1.3
			h-2.9v8.5c0,0.5,0.2,0.8,0.5,1c0.3,0.2,0.6,0.3,1,0.3c0.5,0,0.9-0.1,1.2-0.2c0.4-0.2,0.6-0.3,0.7-0.3L177.9,46z"/>
		<path fill="#FFFFFF" d="M180.6,46.6v-9.7h-1.7v-1.3h1.7v-1.8c0-1.5,0.3-2.7,1-3.6c0.7-0.9,1.6-1.3,2.7-1.3c0.5,0,1,0.1,1.4,0.2
			c0.5,0.1,0.9,0.3,1.2,0.6l-0.5,1.2c-0.2-0.2-0.5-0.3-0.8-0.4c-0.3-0.1-0.7-0.1-1-0.1c-0.8,0-1.4,0.3-1.8,0.9
			c-0.4,0.6-0.6,1.4-0.6,2.6v1.8h3.5v1.3h-3.5v9.7H180.6z"/>
		<path fill="#FFFFFF" d="M193.5,46.8c-0.9,0-1.7-0.2-2.5-0.5c-0.8-0.3-1.4-0.8-2-1.4c-0.6-0.6-1-1.3-1.3-2.1
			c-0.3-0.8-0.5-1.6-0.5-2.5c0-0.9,0.2-1.7,0.5-2.5c0.3-0.8,0.7-1.5,1.3-2.1s1.2-1.1,2-1.4s1.6-0.5,2.5-0.5c0.9,0,1.7,0.2,2.5,0.5
			s1.4,0.8,2,1.4c0.6,0.6,1,1.3,1.3,2.1c0.3,0.8,0.5,1.6,0.5,2.5c0,0.9-0.2,1.7-0.5,2.5c-0.3,0.8-0.7,1.5-1.3,2.1
			c-0.6,0.6-1.2,1.1-2,1.4C195.3,46.6,194.4,46.8,193.5,46.8z M189,40.4c0,0.7,0.1,1.4,0.3,2c0.2,0.6,0.6,1.1,1,1.6s0.9,0.8,1.4,1.1
			c0.6,0.3,1.1,0.4,1.8,0.4s1.2-0.1,1.8-0.4c0.6-0.3,1-0.6,1.5-1.1c0.4-0.5,0.7-1,1-1.6s0.4-1.3,0.4-2c0-0.7-0.1-1.3-0.4-2
			s-0.6-1.2-1-1.6c-0.4-0.5-0.9-0.8-1.4-1.1c-0.5-0.3-1.1-0.4-1.8-0.4s-1.2,0.1-1.8,0.4c-0.6,0.3-1,0.6-1.4,1.1
			c-0.4,0.5-0.7,1-1,1.6C189.1,39,189,39.7,189,40.4z"/>
		<path fill="#FFFFFF" d="M202.6,29.1h1.6v14.7c0,0.5,0.1,0.8,0.4,1.1s0.6,0.4,1.1,0.4c0.2,0,0.4,0,0.6-0.1c0.2,0,0.5-0.1,0.7-0.2
			l0.3,1.3c-0.3,0.1-0.7,0.2-1.1,0.3s-0.8,0.1-1.1,0.1c-0.8,0-1.3-0.2-1.8-0.6c-0.4-0.4-0.6-1-0.6-1.8V29.1z"/>
		<path fill="#FFFFFF" d="M209,31.5v-2.4h1.6v2.4H209z M209,46.6V34.1h1.6v12.5H209z"/>
		<path fill="#FFFFFF" d="M219.7,46.8c-0.9,0-1.7-0.2-2.5-0.5c-0.8-0.3-1.4-0.8-2-1.4c-0.6-0.6-1-1.3-1.3-2.1
			c-0.3-0.8-0.5-1.6-0.5-2.5c0-0.9,0.2-1.7,0.5-2.5c0.3-0.8,0.7-1.5,1.3-2.1s1.2-1.1,2-1.4s1.6-0.5,2.5-0.5c0.9,0,1.7,0.2,2.5,0.5
			s1.4,0.8,2,1.4c0.6,0.6,1,1.3,1.3,2.1c0.3,0.8,0.5,1.6,0.5,2.5c0,0.9-0.2,1.7-0.5,2.5c-0.3,0.8-0.7,1.5-1.3,2.1
			c-0.6,0.6-1.2,1.1-2,1.4C221.4,46.6,220.6,46.8,219.7,46.8z M215.1,40.4c0,0.7,0.1,1.4,0.3,2c0.2,0.6,0.6,1.1,1,1.6
			s0.9,0.8,1.4,1.1c0.6,0.3,1.1,0.4,1.8,0.4s1.2-0.1,1.8-0.4c0.6-0.3,1-0.6,1.5-1.1c0.4-0.5,0.7-1,1-1.6s0.4-1.3,0.4-2
			c0-0.7-0.1-1.3-0.4-2s-0.6-1.2-1-1.6c-0.4-0.5-0.9-0.8-1.4-1.1c-0.5-0.3-1.1-0.4-1.8-0.4s-1.2,0.1-1.8,0.4c-0.6,0.3-1,0.6-1.4,1.1
			c-0.4,0.5-0.7,1-1,1.6C215.2,39,215.1,39.7,215.1,40.4z"/>
	</g>
	<g>
		<path fill="none" stroke="#FFFFFF" stroke-width="2" stroke-miterlimit="10" d="M63.7,33.2c0-10.1-8.2-18.2-18.2-18.2
			s-18.2,8.2-18.2,18.2c0,8,5.2,14.8,12.4,17.3v2.6h11.6v-2.6C58.5,48,63.7,41.2,63.7,33.2z"/>
		<line fill="none" stroke="#FFFFFF" stroke-width="2" stroke-miterlimit="10" x1="39.7" y1="56.4" x2="51.3" y2="56.4"/>
		<line fill="none" stroke="#FFFFFF" stroke-width="2" stroke-miterlimit="10" x1="39.7" y1="59.7" x2="51.3" y2="59.7"/>
		<line fill="none" stroke="#FFFFFF" stroke-width="2" stroke-miterlimit="10" x1="45.5" y1="59.7" x2="45.5" y2="63"/>
		<path fill="none" stroke="#FFFFFF" stroke-width="2" stroke-miterlimit="10" d="M37.2,34c-1,4.1,0.1,7.4,6.9,5.8
			c5.4,4.5,8.5,2.8,9.6-1.7c1.1-4.5-2.9-13.3-7.4-16.6C43.9,27.5,38.4,29,37.2,34z"/>
		<path fill="none" stroke="#FFFFFF" stroke-width="2" stroke-miterlimit="10" d="M45.5,53.1c0,0-3.5-17.1,0.8-24"/>
	</g>
</g>
</svg>
