<?xml version="1.0" encoding="utf-8"?>
<!-- Generator: Adobe Illustrator 18.0.0, SVG Export Plug-In . SVG Version: 6.00 Build 0)  -->
<!DOCTYPE svg PUBLIC "-//W3C//DTD SVG 1.1//EN" "http://www.w3.org/Graphics/SVG/1.1/DTD/svg11.dtd">
<svg version="1.1" id="Layer_1" xmlns="http://www.w3.org/2000/svg" xmlns:xlink="http://www.w3.org/1999/xlink" x="0px" y="0px"
	 width="289px" height="78px" viewBox="0 0 289 78" enable-background="new 0 0 289 78" xml:space="preserve">
<g>
	<path fill="#D63D3F" d="M263.1,0H0v78h263.1L289,39L263.1,0z M262,76H91V2h171l25,37L262,76z"/>
	<g>
		<path fill="#FFFFFF" d="M145.7,46.6v-17h7.1c0.7,0,1.4,0.2,2,0.5c0.6,0.3,1.1,0.7,1.6,1.2s0.8,1.1,1,1.7c0.2,0.6,0.4,1.3,0.4,1.9
			c0,0.7-0.1,1.4-0.3,2c-0.2,0.6-0.6,1.2-1,1.7s-0.9,0.9-1.5,1.2c-0.6,0.3-1.3,0.5-2,0.5h-5.5v6.3H145.7z M147.3,38.8h5.4
			c0.5,0,0.9-0.1,1.4-0.3c0.4-0.2,0.8-0.5,1-0.9c0.3-0.4,0.5-0.8,0.7-1.2s0.2-1,0.2-1.5c0-0.5-0.1-1-0.3-1.5
			c-0.2-0.5-0.4-0.9-0.7-1.2c-0.3-0.4-0.7-0.6-1.1-0.8s-0.9-0.3-1.3-0.3h-5.3V38.8z"/>
		<path fill="#FFFFFF" d="M166.5,35.5c-1.1,0-2.1,0.3-2.9,0.9c-0.8,0.6-1.4,1.4-1.7,2.4v7.8h-1.6V34.1h1.5v3c0.4-0.9,1-1.6,1.7-2.2
			s1.5-0.9,2.3-0.9c0.1,0,0.3,0,0.4,0s0.2,0,0.3,0V35.5z"/>
		<path fill="#FFFFFF" d="M173.6,46.8c-0.9,0-1.7-0.2-2.5-0.5s-1.4-0.8-2-1.4c-0.6-0.6-1-1.3-1.3-2.1s-0.5-1.6-0.5-2.5
			c0-0.9,0.2-1.7,0.5-2.5c0.3-0.8,0.7-1.5,1.3-2.1s1.2-1.1,2-1.4c0.8-0.4,1.6-0.5,2.5-0.5c0.9,0,1.7,0.2,2.5,0.5
			c0.8,0.4,1.4,0.8,2,1.4c0.6,0.6,1,1.3,1.3,2.1c0.3,0.8,0.5,1.6,0.5,2.5c0,0.9-0.2,1.7-0.5,2.5c-0.3,0.8-0.7,1.5-1.3,2.1
			c-0.6,0.6-1.2,1.1-2,1.4S174.5,46.8,173.6,46.8z M169.1,40.4c0,0.7,0.1,1.4,0.3,2c0.2,0.6,0.6,1.1,1,1.6s0.9,0.8,1.4,1.1
			c0.6,0.3,1.1,0.4,1.8,0.4s1.2-0.1,1.8-0.4c0.6-0.3,1-0.6,1.5-1.1c0.4-0.5,0.7-1,1-1.6c0.2-0.6,0.4-1.3,0.4-2c0-0.7-0.1-1.3-0.4-2
			c-0.2-0.6-0.6-1.2-1-1.6c-0.4-0.5-0.9-0.8-1.4-1.1c-0.5-0.3-1.1-0.4-1.8-0.4s-1.2,0.1-1.8,0.4c-0.6,0.3-1,0.6-1.4,1.1
			s-0.7,1-1,1.6C169.2,39,169.1,39.7,169.1,40.4z"/>
		<path fill="#FFFFFF" d="M183.3,36.8h-1.7v-1.3h1.7v-1.8c0-0.6,0.1-1.2,0.3-1.8s0.4-1.1,0.8-1.6c0.4-0.5,0.8-0.8,1.4-1.1
			c0.6-0.3,1.2-0.4,2-0.4c0.9,0,1.7,0.1,2.3,0.4c0.6,0.3,1.1,0.5,1.3,0.7l-0.7,1.2c-0.3-0.2-0.7-0.4-1.2-0.6c-0.5-0.2-1-0.3-1.6-0.3
			c-0.5,0-0.9,0.1-1.3,0.3s-0.7,0.5-0.9,0.8c-0.2,0.3-0.4,0.7-0.5,1.1c-0.1,0.4-0.2,0.8-0.2,1.2v1.8h6.3v11h-1.6v-9.7h-4.6v9.7h-1.6
			V36.8z"/>
		<path fill="#FFFFFF" d="M194.9,29.1h1.6v14.7c0,0.5,0.1,0.8,0.4,1.1s0.6,0.4,1.1,0.4c0.2,0,0.4,0,0.6-0.1s0.5-0.1,0.7-0.2l0.3,1.3
			c-0.3,0.1-0.7,0.2-1.1,0.3c-0.4,0.1-0.8,0.1-1.1,0.1c-0.8,0-1.3-0.2-1.8-0.6c-0.4-0.4-0.6-1-0.6-1.8V29.1z"/>
		<path fill="#FFFFFF" d="M206.8,46.8c-0.9,0-1.8-0.2-2.5-0.5c-0.8-0.3-1.4-0.8-2-1.4c-0.6-0.6-1-1.3-1.3-2.1
			c-0.3-0.8-0.5-1.6-0.5-2.5c0-0.9,0.2-1.7,0.5-2.5c0.3-0.8,0.7-1.5,1.3-2c0.6-0.6,1.2-1,2-1.4c0.8-0.3,1.6-0.5,2.5-0.5
			s1.7,0.2,2.5,0.5s1.4,0.8,2,1.4s1,1.3,1.3,2c0.3,0.8,0.5,1.6,0.5,2.4c0,0.1,0,0.3,0,0.4c0,0.1,0,0.2,0,0.3h-10.7
			c0,0.7,0.2,1.3,0.5,1.9c0.3,0.6,0.6,1.1,1,1.5c0.4,0.4,0.9,0.7,1.4,1c0.5,0.2,1.1,0.3,1.7,0.3c0.4,0,0.8-0.1,1.2-0.2
			c0.4-0.1,0.8-0.3,1.1-0.5c0.3-0.2,0.6-0.4,0.9-0.7c0.3-0.3,0.5-0.6,0.6-0.9l1.4,0.4c-0.2,0.5-0.5,0.9-0.8,1.3s-0.8,0.7-1.2,1
			c-0.5,0.3-1,0.5-1.5,0.6C207.9,46.7,207.3,46.8,206.8,46.8z M211.4,39.7c0-0.7-0.2-1.3-0.5-1.8c-0.3-0.6-0.6-1-1-1.4
			c-0.4-0.4-0.9-0.7-1.4-0.9c-0.5-0.2-1.1-0.3-1.7-0.3c-0.6,0-1.2,0.1-1.7,0.3c-0.5,0.2-1,0.5-1.4,0.9c-0.4,0.4-0.7,0.9-1,1.4
			c-0.2,0.6-0.4,1.2-0.4,1.8H211.4z"/>
	</g>
	<g>
		<path fill="none" stroke="#FFFFFF" stroke-width="2" stroke-miterlimit="10" d="M45.5,61.7h22.7c0,0,0-4.1-2-8
			c-1.5-2.9-7.4-4.7-15.3-7.7v-5.9c0,0,2.4-2.2,2.4-6.2c1,0,2-4,0-4.9c0-0.6,2.6-5.5,2-8.9c-1-4.9-14.8-4.9-15.8-1
			c-5.9,0-2,9.1-2,9.9c-2,1-1,4.9,0,4.9c0,4,2.4,5.8,2.4,5.8v6.3c-7.9,3-13.8,4.7-15.3,7.7c-2,4-2,8-2,8H45.5z"/>
	</g>
</g>
</svg>
