<?xml version="1.0" encoding="utf-8"?>
<!-- Generator: Adobe Illustrator 18.0.0, SVG Export Plug-In . SVG Version: 6.00 Build 0)  -->
<!DOCTYPE svg PUBLIC "-//W3C//DTD SVG 1.1//EN" "http://www.w3.org/Graphics/SVG/1.1/DTD/svg11.dtd">
<svg version="1.1" id="Layer_1" xmlns="http://www.w3.org/2000/svg" xmlns:xlink="http://www.w3.org/1999/xlink" x="0px" y="0px"
	 width="76px" height="76px" viewBox="0 0 76 76" enable-background="new 0 0 76 76" xml:space="preserve">
<rect fill="#D63D3F" width="76" height="76"/>
<g>
	<path fill="none" stroke="#FFFFFF" stroke-width="2" stroke-miterlimit="10" d="M38.1,61.3h23.2c0,0,0-4.2-2-8.2
		c-1.5-3-7.6-4.8-15.7-7.9v-6c0,0,2.5-2.3,2.5-6.3c1,0,2-4.1,0-5c0-0.6,2.7-5.6,2-9.1c-1-5-15.2-5-16.2-1c-6,0-2,9.3-2,10.1
		c-2,1-1,5,0,5c0,4.1,2.5,5.9,2.5,5.9v6.5c-8.1,3.1-14.1,4.8-15.7,7.9c-2,4.1-2,8.2-2,8.2S38.1,61.3,38.1,61.3z"/>
</g>
</svg>
