<?xml version="1.0" encoding="utf-8"?>
<!-- Generator: Adobe Illustrator 18.0.0, SVG Export Plug-In . SVG Version: 6.00 Build 0)  -->
<!DOCTYPE svg PUBLIC "-//W3C//DTD SVG 1.1//EN" "http://www.w3.org/Graphics/SVG/1.1/DTD/svg11.dtd">
<svg version="1.1" id="Layer_1" xmlns="http://www.w3.org/2000/svg" xmlns:xlink="http://www.w3.org/1999/xlink" x="0px" y="0px"
	 width="76px" height="76px" viewBox="0 0 76 76" enable-background="new 0 0 76 76" xml:space="preserve">
<rect fill="#37BC9B" width="76" height="76"/>
<g>
	<polyline fill="none" stroke="#FFFFFF" stroke-width="2" stroke-miterlimit="10" points="36.7,57 18.1,57 18.1,14 41.3,14 
		51.2,23.9 51.2,28.1 	"/>
	<polyline fill="none" stroke="#FFFFFF" stroke-width="2" stroke-miterlimit="10" points="41.3,14 41.3,23.9 51.3,23.9 	"/>
	<polyline fill="none" stroke="#FFFFFF" stroke-width="2" stroke-miterlimit="10" points="56.2,48.1 56.2,62 49.6,57 43,62 43,48.6 
			"/>
	<circle fill="none" stroke="#FFFFFF" stroke-width="2" stroke-miterlimit="10" cx="49.6" cy="42.1" r="3.3"/>
	<path fill="none" stroke="#FFFFFF" stroke-width="2" stroke-miterlimit="10" d="M56.9,42.2c1-1.3,1.3-3.2,0.4-4.7
		c-0.9-1.5-2.6-2.3-4.3-2c-0.6-1.6-2.1-2.7-3.9-2.7c-1.8,0-3.3,1.1-3.9,2.7c-1.7-0.3-3.4,0.5-4.3,2c-0.9,1.5-0.7,3.4,0.4,4.7
		c-1,1.3-1.3,3.2-0.4,4.7c0.9,1.5,2.6,2.3,4.3,2c0.6,1.6,2.1,2.7,3.9,2.7s3.3-1.1,3.9-2.7c1.7,0.3,3.4-0.5,4.2-2
		C58.2,45.3,58,43.5,56.9,42.2z"/>
</g>
</svg>
