<?xml version="1.0" encoding="utf-8"?>
<!-- Generator: Adobe Illustrator 18.0.0, SVG Export Plug-In . SVG Version: 6.00 Build 0)  -->
<!DOCTYPE svg PUBLIC "-//W3C//DTD SVG 1.1//EN" "http://www.w3.org/Graphics/SVG/1.1/DTD/svg11.dtd">
<svg version="1.1" id="Capa_1" xmlns="http://www.w3.org/2000/svg" xmlns:xlink="http://www.w3.org/1999/xlink" x="0px" y="0px"
	 width="30px" height="150px" viewBox="30 0 30 150" enable-background="new 30 0 30 150" xml:space="preserve">
<g>
	<path fill="#3B5998" d="M45,60c8.3,0,15-6.7,15-15c0-8.3-6.7-15-15-15s-15,6.7-15,15C30,53.3,36.7,60,45,60"/>
	<path fill="#FFFFFF" d="M41.4,42.5h1.6V41c0-0.7,0-1.7,0.5-2.3c0.5-0.7,1.2-1.1,2.4-1.1c2,0,2.8,0.3,2.8,0.3l-0.4,2.3
		c0,0-0.6-0.2-1.2-0.2c-0.6,0-1.1,0.2-1.1,0.8v1.8h2.5l-0.2,2.2h-2.3v7.8h-2.9v-7.8h-1.6L41.4,42.5L41.4,42.5z"/>
	<path fill="#DF4A32" d="M45,120c8.3,0,15-6.7,15-15c0-8.3-6.7-15-15-15c-8.3,0-15,6.7-15,15C30,113.3,36.7,120,45,120"/>
	<path fill="#FFFFFF" d="M42.5,111.7c-1.8,0-3.1-1.1-3.1-2.5c0-1.3,1.6-2.4,3.4-2.4c0.4,0,0.8,0.1,1.2,0.2c1,0.7,1.7,1.1,1.9,1.8
		c0,0.2,0.1,0.3,0.1,0.5C45.9,110.7,45,111.7,42.5,111.7 M43,103.8c-1.2,0-2.3-1.3-2.5-2.9c-0.2-1.6,0.6-2.8,1.8-2.7
		c1.2,0,2.3,1.3,2.5,2.9C45,102.6,44.2,103.8,43,103.8 M45.5,106.1c-0.4-0.3-1.2-1-1.2-1.4c0-0.5,0.1-0.7,0.9-1.3
		c0.8-0.6,1.3-1.4,1.3-2.4c0-1.2-0.5-2.3-1.5-2.7h1.5l1-0.8h-4.6c-2.1,0-4,1.6-4,3.4c0,1.9,1.4,3.4,3.5,3.4c0.1,0,0.3,0,0.4,0
		c-0.1,0.3-0.2,0.6-0.2,0.9c0,0.5,0.3,0.9,0.6,1.3c-0.3,0-0.5,0-0.8,0c-2.6,0-4.6,1.6-4.6,3.3c0,1.7,2.2,2.7,4.8,2.7
		c2.9,0,4.6-1.7,4.6-3.3C47.1,107.8,46.7,107,45.5,106.1 M52.2,103.9h-1.8v-1.8H49v1.8h-1.8v1.5H49v1.8h1.5v-1.8h1.8
		C52.2,105.4,52.2,103.9,52.2,103.9z"/>
	<path fill="#E52D27" d="M45,150c8.3,0,15-6.7,15-15c0-8.3-6.7-15-15-15c-8.3,0-15,6.7-15,15C30,143.3,36.7,150,45,150"/>
	<path fill="#FFFFFF" d="M48.1,130v2.9c-0.1,0.1-0.2,0.1-0.2,0.2c-0.1,0.1-0.2,0.1-0.2,0.1c-0.1,0-0.1,0-0.2-0.1
		c0,0-0.1-0.1-0.1-0.2V130h-0.8v3.1c0,0.2,0,0.4,0.1,0.5c0.1,0.1,0.2,0.2,0.4,0.2c0.2,0,0.3,0,0.5-0.1c0.2-0.1,0.3-0.2,0.4-0.4v0.4
		h0.8V130L48.1,130L48.1,130z M45.7,130.2c-0.2-0.2-0.5-0.3-0.8-0.3c-0.3,0-0.6,0.1-0.8,0.3c-0.2,0.2-0.3,0.4-0.3,0.7v2
		c0,0.3,0.1,0.6,0.3,0.8c0.2,0.2,0.5,0.3,0.8,0.3c0.3,0,0.6-0.1,0.8-0.3c0.2-0.2,0.3-0.4,0.3-0.8v-1.9
		C46,130.6,45.9,130.3,45.7,130.2z M45.2,132.9c0,0.1,0,0.2-0.1,0.2c-0.1,0.1-0.1,0.1-0.3,0.1c-0.1,0-0.2,0-0.2-0.1
		c-0.1-0.1-0.1-0.1-0.1-0.2v-2.1c0-0.1,0-0.1,0.1-0.2c0.1-0.1,0.1-0.1,0.2-0.1c0.1,0,0.2,0,0.3,0.1c0.1,0,0.1,0.1,0.1,0.2
		L45.2,132.9L45.2,132.9z M42.8,128.6l-0.5,2h-0.1l-0.6-2h-0.9l1,3.1v2h0.9v-2.1l1-3L42.8,128.6L42.8,128.6z M48.9,137.6
		c0,0.1,0.1,0.2,0.1,0.3v0.3h-0.6v-0.3c0-0.1,0-0.2,0.1-0.3c0-0.1,0.1-0.1,0.2-0.1C48.7,137.5,48.8,137.6,48.9,137.6z M46.5,137.6
		c0-0.1-0.1-0.1-0.2-0.1c0,0-0.1,0-0.1,0c0,0-0.1,0.1-0.1,0.1v2.1c0.1,0.1,0.1,0.1,0.2,0.1c0.1,0,0.1,0,0.2,0c0.1,0,0.2,0,0.2-0.1
		c0,0,0.1-0.1,0.1-0.2v-1.8C46.6,137.8,46.5,137.7,46.5,137.6z M46.5,137.6c0-0.1-0.1-0.1-0.2-0.1c0,0-0.1,0-0.1,0
		c0,0-0.1,0.1-0.1,0.1v2.1c0.1,0.1,0.1,0.1,0.2,0.1c0.1,0,0.1,0,0.2,0c0.1,0,0.2,0,0.2-0.1c0,0,0.1-0.1,0.1-0.2v-1.8
		C46.6,137.8,46.5,137.7,46.5,137.6z M50.4,135H39.6c-1.2,0-2.1,1-2.1,2.1v2.2c0,1.2,1,2.1,2.1,2.1h10.7c1.2,0,2.1-1,2.1-2.1v-2.2
		C52.5,135.9,51.5,135,50.4,135z M42.5,136.5h-0.8v4H41v-4h-0.8v-0.7h2.4C42.5,135.8,42.5,136.5,42.5,136.5z M44.8,140.4h-0.7v-0.4
		c-0.1,0.1-0.3,0.2-0.4,0.3c-0.1,0.1-0.3,0.1-0.4,0.1c-0.2,0-0.3-0.1-0.4-0.2c-0.1-0.1-0.1-0.2-0.1-0.5V137h0.7v2.6
		c0,0.1,0,0.1,0,0.2c0,0,0.1,0.1,0.1,0.1c0.1,0,0.1,0,0.2-0.1c0.1,0,0.1-0.1,0.2-0.2V137h0.7V140.4z M47.3,139.7
		c0,0.2-0.1,0.4-0.2,0.6c-0.1,0.1-0.3,0.2-0.5,0.2c-0.1,0-0.3,0-0.4-0.1c-0.1-0.1-0.2-0.1-0.3-0.2v0.3h-0.7v-4.6H46v1.5
		c0.1-0.1,0.2-0.2,0.3-0.2c0.1-0.1,0.2-0.1,0.3-0.1c0.2,0,0.4,0.1,0.5,0.2c0.1,0.1,0.2,0.4,0.2,0.6V139.7z M49.6,138.8h-1.3v0.6
		c0,0.2,0,0.3,0.1,0.4c0,0.1,0.1,0.1,0.2,0.1c0.1,0,0.2,0,0.2-0.1c0-0.1,0.1-0.2,0.1-0.4v-0.2h0.7v0.2c0,0.4-0.1,0.6-0.3,0.8
		c-0.2,0.2-0.4,0.3-0.8,0.3c-0.3,0-0.6-0.1-0.7-0.3c-0.2-0.2-0.3-0.4-0.3-0.8v-1.5c0-0.3,0.1-0.5,0.3-0.7c0.2-0.2,0.4-0.3,0.7-0.3
		c0.3,0,0.6,0.1,0.7,0.3c0.2,0.2,0.3,0.4,0.3,0.7L49.6,138.8L49.6,138.8z M46.3,137.5c0,0-0.1,0-0.1,0c0,0-0.1,0.1-0.1,0.1v2.1
		c0.1,0.1,0.1,0.1,0.2,0.1c0.1,0,0.1,0,0.2,0c0.1,0,0.2,0,0.2-0.1c0,0,0.1-0.1,0.1-0.2v-1.8c0-0.1,0-0.2-0.1-0.3
		C46.4,137.5,46.4,137.5,46.3,137.5z M46.5,137.6c0-0.1-0.1-0.1-0.2-0.1c0,0-0.1,0-0.1,0c0,0-0.1,0.1-0.1,0.1v2.1
		c0.1,0.1,0.1,0.1,0.2,0.1c0.1,0,0.1,0,0.2,0c0.1,0,0.2,0,0.2-0.1c0,0,0.1-0.1,0.1-0.2v-1.8C46.6,137.8,46.5,137.7,46.5,137.6z
		 M46.5,137.6c0-0.1-0.1-0.1-0.2-0.1c0,0-0.1,0-0.1,0c0,0-0.1,0.1-0.1,0.1v2.1c0.1,0.1,0.1,0.1,0.2,0.1c0.1,0,0.1,0,0.2,0
		c0.1,0,0.2,0,0.2-0.1c0,0,0.1-0.1,0.1-0.2v-1.8C46.6,137.8,46.5,137.7,46.5,137.6z"/>
	<path fill="#0077B5" d="M45,30c8.3,0,15-6.7,15-15c0-8.3-6.7-15-15-15c-8.3,0-15,6.7-15,15C30,23.3,36.7,30,45,30"/>
	<path fill="#FFFFFF" d="M40.8,21.3h-2.9v-9.4h2.9V21.3z M39.3,10.7L39.3,10.7c-1.1,0-1.8-0.7-1.8-1.6c0-0.9,0.7-1.6,1.8-1.6
		c1.1,0,1.7,0.7,1.8,1.6C41,10,40.4,10.7,39.3,10.7z M52.5,21.3h-3.3v-4.8c0-1.3-0.5-2.1-1.7-2.1c-0.9,0-1.4,0.6-1.6,1.1
		c-0.1,0.2-0.1,0.5-0.1,0.8v5.1h-3.3c0,0,0-8.6,0-9.4h3.3v1.5c0.2-0.6,1.2-1.6,2.9-1.6c2.1,0,3.7,1.3,3.7,4.2L52.5,21.3L52.5,21.3z"
		/>
	<path fill="#333333" d="M45,90c8.3,0,15-6.7,15-15s-6.7-15-15-15c-8.3,0-15,6.7-15,15S36.7,90,45,90"/>
	<path fill="#FFFFFF" d="M38.2,77.5C38.3,77.5,38.3,77.4,38.2,77.5l0.2-1.4l-0.2-1.3c0,0,0-0.1-0.1-0.1c0,0-0.1,0-0.1,0.1L38,76.1
		L38.2,77.5C38.2,77.4,38.2,77.5,38.2,77.5z M37.7,76.9L37.7,76.9L37.7,76.9L37.7,76.9z M37.7,77C37.7,77,37.7,76.9,37.7,77l0.2-0.9
		l-0.1-0.8c0,0,0-0.1-0.1-0.1c0,0-0.1,0-0.1,0.1l-0.1,0.8L37.7,77C37.6,76.9,37.6,77,37.7,77z M38.9,74.5
		C38.9,74.4,38.9,74.4,38.9,74.5c-0.1-0.1-0.1,0-0.1,0l-0.1,1.6l0.1,1.5c0,0,0,0.1,0.1,0.1c0,0,0.1,0,0.1-0.1l0.2-1.5L38.9,74.5z
		 M39.4,77.7C39.5,77.7,39.5,77.7,39.4,77.7L39.4,77.7l0.2-1.7l-0.2-1.6c0-0.1,0-0.1-0.1-0.1s-0.1,0-0.1,0.1l-0.1,1.6L39.4,77.7
		C39.3,77.7,39.4,77.7,39.4,77.7z M40,77.8c0.1,0,0.1,0,0.1-0.1l0,0l0.1-1.6l-0.1-1.5c0-0.1,0-0.1-0.1-0.1s-0.1,0-0.1,0.1l-0.1,1.5
		l0.1,1.6C39.9,77.7,40,77.8,40,77.8z M40.9,76.1l-0.1-2.5c0-0.1-0.1-0.1-0.1-0.1c-0.1,0-0.1,0.1-0.1,0.1l-0.1,2.5l0.1,1.6
		c0,0.1,0.1,0.1,0.1,0.1c0.1,0,0.1-0.1,0.1-0.1l0,0L40.9,76.1z M41.2,77.8c0.1,0,0.1-0.1,0.1-0.1v0l0.1-1.6l-0.1-3
		c0-0.1-0.1-0.1-0.1-0.1c-0.1,0-0.1,0.1-0.1,0.1l-0.1,3l0.1,1.6C41.1,77.7,41.2,77.8,41.2,77.8z M41.8,72.6c-0.1,0-0.1,0.1-0.1,0.1
		l-0.1,3.3l0.1,1.6c0,0.1,0.1,0.1,0.1,0.1s0.1-0.1,0.1-0.1l0,0l0.1-1.6L42,72.8C42,72.7,41.9,72.6,41.8,72.6z M42.5,77.8
		c0.1,0,0.1-0.1,0.2-0.2v0l0.1-1.6l-0.1-3.4c0-0.1-0.1-0.2-0.2-0.2s-0.2,0.1-0.2,0.2l-0.1,3.4l0.1,1.6
		C42.3,77.7,42.4,77.8,42.5,77.8z M43.1,77.8c0.1,0,0.2-0.1,0.2-0.2l0,0l0.1-1.6l-0.1-3.3c0-0.1-0.1-0.2-0.2-0.2
		c-0.1,0-0.2,0.1-0.2,0.2l-0.1,3.3l0.1,1.6C42.9,77.7,43,77.8,43.1,77.8z M44,76.1l-0.1-3.2c0-0.1-0.1-0.2-0.2-0.2
		c-0.1,0-0.2,0.1-0.2,0.2l-0.1,3.2l0.1,1.5c0,0.1,0.1,0.2,0.2,0.2c0.1,0,0.2-0.1,0.2-0.2v0L44,76.1z M44.3,77.8
		c0.1,0,0.2-0.1,0.2-0.2v0l0.1-1.5l-0.1-3.8c0-0.1-0.1-0.2-0.2-0.2c-0.1,0-0.2,0.1-0.2,0.2l-0.1,3.8c0,0,0.1,1.5,0.1,1.5
		C44.1,77.7,44.2,77.8,44.3,77.8z M45,71.7c-0.1,0-0.2,0.1-0.2,0.2l-0.1,4.2l0.1,1.5c0,0.1,0.1,0.2,0.2,0.2c0.1,0,0.2-0.1,0.2-0.2v0
		l0.1-1.5l-0.1-4.2C45.2,71.8,45.1,71.7,45,71.7z M45.5,77.8c0,0,5.1,0,5.1,0c1,0,1.8-0.8,1.8-1.8c0-1-0.8-1.8-1.8-1.8
		c-0.3,0-0.5,0.1-0.7,0.1c-0.1-1.7-1.5-3-3.2-3c-0.4,0-0.8,0.1-1.2,0.2c-0.1,0.1-0.2,0.1-0.2,0.2v5.9C45.3,77.7,45.4,77.8,45.5,77.8
		z"/>
</g>
</svg>
