<?xml version="1.0" encoding="utf-8"?>
<!-- Generator: Adobe Illustrator 18.0.0, SVG Export Plug-In . SVG Version: 6.00 Build 0)  -->
<!DOCTYPE svg PUBLIC "-//W3C//DTD SVG 1.1//EN" "http://www.w3.org/Graphics/SVG/1.1/DTD/svg11.dtd">
<svg version="1.1" id="Layer_1" xmlns="http://www.w3.org/2000/svg" xmlns:xlink="http://www.w3.org/1999/xlink" x="0px" y="0px"
	 width="28px" height="28px" viewBox="0 0 28 28" enable-background="new 0 0 28 28" xml:space="preserve">
<g>
	<path fill="#FFFFFF" d="M23.6,18.4C23.6,18.4,23.6,18.4,23.6,18.4h-5.1c-0.2,0-0.4-0.1-0.5-0.2L14,13l-4,5.1
		c-0.1,0.2-0.3,0.2-0.5,0.2H4.4c-0.2,0-0.5-0.1-0.6-0.4c-0.1-0.2-0.1-0.5,0.1-0.7l9.6-11.6c0.2-0.3,0.7-0.3,1,0L24,17.3
		c0.1,0.1,0.2,0.3,0.2,0.5C24.3,18.1,24,18.4,23.6,18.4z"/>
</g>
<g>
	<path fill="#FFFFFF" d="M14,28C6.3,28,0,21.7,0,14S6.3,0,14,0s14,6.3,14,14S21.7,28,14,28z M14,1.2C6.9,1.2,1.2,6.9,1.2,14
		S6.9,26.8,14,26.8c7.1,0,12.8-5.8,12.8-12.8S21.1,1.2,14,1.2z"/>
</g>
</svg>
